<svg xmlns="http://www.w3.org/2000/svg" xmlns:svg="http://www.w3.org/2000/svg" id="svg2" width="430.543" height="325.295" x="0" y="0" enable-background="new 0 0 430.543 325.295" version="1.1" viewBox="0 0 430.543 325.295" xml:space="preserve"><metadata id="metadata11"/><path id="path3910" fill="#D7D7F4" stroke="#000" stroke-linecap="round" stroke-linejoin="round" d="M224.757,6.177l205.288,122.462l-9.313,5.563L215.265,11.608L224.757,6.177z"/><path id="path3918" fill="#B3B3B3" stroke="#000" stroke-linecap="round" stroke-linejoin="round" d="M430.043,128.651v68l-9.311,5.555v-68L430.043,128.651z"/><path id="path6059" fill="#B3B3B3" stroke="#000" d="M299.065,118.563l-9.312,5.556 l37.155,22.163l9.25-5.594L299.065,118.563z"/><path id="path6053" fill="#F2F2F2" stroke="#000" stroke-linecap="round" stroke-linejoin="round" d="M215.271,11.589l205.451,122.629v68l-93.813-55.969l0,0l-37.156-22.188v-0.031l-74.011-44.163L215.271,11.589z"/><path style="fill:#a40;stroke:#520;stroke-width:.35714287" id="path3343" d="m 373.36256,173.16488 c -25.56708,-15.2525 -54.49565,-32.51675 -64.28571,-38.365 -9.79006,-5.84825 -34.59475,-20.65991 -55.12154,-32.9148 l -37.32143,-22.281629 -0.2182,-10.299478 c -0.12002,-5.664714 -0.24055,-20.642568 -0.26786,-33.284121 -0.0394,-18.259414 0.0421,-22.948455 0.39678,-22.808635 0.60084,0.23688 202.87324,120.963863 203.21614,121.290263 0.14835,0.1412 0.2287,15.13789 0.17857,33.32597 l -0.0911,33.06924 -46.48561,-27.73181 z"/><path style="fill:#520;stroke:#520;stroke-width:.35714287" id="path3345" d="m 319.31245,72.937623 c -55.6875,-33.252421 -101.5331,-60.678139 -101.87912,-60.94604 -0.56718,-0.439128 -0.237,-0.712302 3.35309,-2.7742199 3.06279,-1.7590703 4.11508,-2.2047053 4.55769,-1.9301367 0.31652,0.1963455 46.05763,27.4814156 101.64691,60.6334896 55.58929,33.152074 101.19894,60.392774 101.35477,60.534904 0.2172,0.19809 -7.44796,5.13848 -7.72204,4.97706 -0.0337,-0.0199 -45.6238,-27.24263 -101.3113,-60.495057 z"/><path style="fill:#520;stroke:#520;stroke-width:.35714287" id="path3347" d="m 421.45531,167.81954 0,-33.23139 3.125,-1.87409 c 1.71875,-1.03075 3.48661,-2.10467 3.92857,-2.38648 l 0.80357,-0.51238 0,33.23139 0,33.23138 -3.125,1.87409 c -1.71875,1.03075 -3.48661,2.10467 -3.92857,2.38648 l -0.80357,0.51238 0,-33.23138 z"/><path style="fill:#520;stroke:#520;stroke-width:.35468683" id="path3505" d="M 279.38477 49.716797 L 251.33984 67.113281 L 223.29297 84.509766 L 224.14648 84.919922 C 224.61568 85.145392 226.44716 86.075368 228.2168 86.986328 L 231.43555 88.642578 L 259.48047 71.246094 L 287.52539 53.849609 L 286.67383 53.439453 C 286.20463 53.213983 284.37316 52.284007 282.60352 51.373047 L 279.38477 49.716797 z"/><path id="path3682" d="m 319.31245,72.937623 -28.04493,17.396484 -28.04687,17.396483 0.85351,0.41016 c 0.4692,0.22547 2.30068,1.15544 4.07032,2.0664 l 3.21875,1.65625 28.04492,-17.39648 28.04492,-17.396485 -0.85156,-0.410156 c -0.4692,-0.22547 -2.30067,-1.155446 -4.07031,-2.066406 l -3.21875,-1.65625 z" style="fill:#520;stroke:#520;stroke-width:.35468683"/><path style="fill:#520;stroke:#520;stroke-width:.35468683" id="path3684" d="m 357.52674,96.509051 -28.04493,17.396489 -28.04687,17.39648 0.85351,0.41016 c 0.4692,0.22547 2.30068,1.15544 4.07032,2.0664 l 3.21875,1.65625 28.04492,-17.39648 28.04492,-17.39649 -0.85156,-0.41015 c -0.4692,-0.22547 -2.30067,-1.155449 -4.07031,-2.066409 l -3.21875,-1.65625 z"/><path id="path3686" d="m 401.45531,123.29476 -28.04493,17.39649 -28.04687,17.39648 0.85351,0.41016 c 0.4692,0.22547 2.30068,1.15544 4.07032,2.0664 l 3.21875,1.65625 28.04492,-17.39648 28.04492,-17.39649 -0.85156,-0.41015 c -0.4692,-0.22547 -2.30067,-1.15545 -4.07031,-2.06641 l -3.21875,-1.65625 z" style="fill:#520;stroke:#520;stroke-width:.35468683"/></svg>