<svg xmlns="http://www.w3.org/2000/svg" xmlns:svg="http://www.w3.org/2000/svg" xmlns:xlink="http://www.w3.org/1999/xlink" id="svg2" width="430.543" height="325.295" x="0" y="0" enable-background="new 0 0 430.543 325.295" version="1.1" viewBox="0 0 430.543 325.295" xml:space="preserve"><path id="path6053" fill="#F2F2F2" d="M215.271,11.589	l205.451,122.629v68l-93.813-55.969l0,0l-37.156-22.188v-0.031l-74.011-44.163L215.271,11.589z"/><path id="path3910" fill="#D7D7F4" d="M224.757,6.177	l205.288,122.462l-9.313,5.563L264.994,41.28l-49.729-29.672L224.757,6.177z"/><path id="path3918" fill="#B3B3B3" d="M430.043,128.651v68l-9.311,5.555v-68L430.043,128.651z"/><polygon fill="#936551" points="286.322 60.357 295.438 65.896 295.438 119.607 286.322 114.357"/><polyline fill="#14517D" points="294.705 64.607 322.322 82.228 322.322 125.732 294.79 109.274"/><polygon fill="#A8745E" points="295.072 119.607 322.322 135.61 322.322 125.732 294.79 109.274 286.322 114.357"/><circle cx="318.936" cy="97.356" r=".957" fill="#FFF"/><circle cx="319.893" cy="86.242" r=".846" fill="#FFF"/><circle cx="302.059" cy="70.634" r=".923" fill="#FFF"/><circle cx="313.063" cy="81.228" r="1" fill="#FFF" enable-background="new" opacity=".7"/><circle cx="301.643" cy="80.681" r=".957" fill="#FFF"/><circle cx="308.514" cy="105.838" r=".957" fill="#FFF" enable-background="new" opacity=".7"/><circle cx="317.98" cy="109.857" r="1.23" fill="#FFF"/><circle cx="299.456" cy="85.396" r=".999" fill="#FFF" enable-background="new" opacity=".7"/><circle cx="304.109" cy="95.443" r=".956" fill="#FFF"/><circle cx="312.857" cy="90.939" r=".957" fill="#FFF"/><circle cx="299.457" cy="106.795" r=".957" fill="#FFF"/><polygon fill="none" stroke="#BF8C72" stroke-miterlimit="10" stroke-width="2" points="286.322 60.357 322.322 82.228 322.322 135.61 286.322 114.357"/><line x1="304.107" x2="304.107" y1="71.14" y2="124.721" fill="none" stroke="#BF8C72" stroke-miterlimit="10" stroke-width="2"/><line x1="286.688" x2="321.956" y1="87.464" y2="108.396" fill="none" stroke="#BF8C72" stroke-miterlimit="10" stroke-width="2"/><g><g><g><path fill="#B72F1D" d="M296.977,109.42l-0.1-0.155l-0.938-1.479h1.563l-0.466-0.732l-0.082-0.13l-1.179-1.857h0.814 l-0.211-0.332l-0.234-0.37l-1.022-1.612h0.808l-0.343-0.538l-0.108-0.173l-0.814-1.284l-0.777,1.311l-0.106,0.18l-0.302,0.505 h0.713l-0.912,1.539l-0.229,0.386l-0.231,0.39h0.705l-1.145,1.926l-0.076,0.131l-0.396,0.663h1.427l-0.93,1.566l-0.102,0.17 l-0.955,1.609h2.969v1.396h0.777v-1.396h2.969L296.977,109.42z M294.652,109.121L294.652,109.121L294.652,109.121 L294.652,109.121L294.652,109.121L294.652,109.121z"/><polygon fill="#9E251B" points="294.691 100.945 294.506 102.471 295.016 103.533 293.951 104.551 294.783 105.752 293.443 107.139 294.645 108.063 293.073 110.42 298.02 110.975 291.348 111.132 293.333 107.786 291.906 107.786 293.521 105.066 292.816 105.066 294.191 102.752 293.479 102.752"/><g><polygon fill="#E2C937" points="294.654 98.596 294.504 100.053 294.723 101.673 294.85 100.053"/><polygon fill="#E2C937" points="296.252 100.112 294.761 99.965 293.102 100.178 294.761 100.304"/><polygon fill="#E2C937" points="295.477 99.388 294.636 100.023 293.889 100.925 294.805 100.197"/><polygon fill="#E2C937" points="295.475 100.927 294.818 100.109 293.891 99.386 294.643 100.276"/></g></g><ellipse cx="295.895" cy="106.6" fill="#E2C937" rx=".496" ry=".533"/><ellipse cx="293.168" cy="109.86" fill="#E2C937" rx=".402" ry=".433"/><ellipse cx="295.941" cy="109.58" fill="#E2C937" rx=".401" ry=".433"/><ellipse cx="293.423" cy="106.791" fill="#E2C937" rx=".494" ry=".533"/><ellipse cx="294.878" cy="104.172" fill="#E2C937" rx=".401" ry=".434"/></g><g><path fill="#4E373B" d="M296.344,114.489h-0.177l0.649-2.798h-4.002l0.6,2.798h-0.38c-0.134,0-0.241,0.113-0.241,0.253 c0,0.139,0.107,0.252,0.241,0.252h3.31c0.133,0,0.241-0.113,0.241-0.252C296.585,114.603,296.477,114.489,296.344,114.489z"/></g></g></svg>