<svg xmlns="http://www.w3.org/2000/svg" xmlns:svg="http://www.w3.org/2000/svg" xmlns:xlink="http://www.w3.org/1999/xlink" id="svg2" width="430.543" height="325.295" x="0" y="0" enable-background="new 0 0 430.543 325.295" version="1.1" viewBox="0 0 430.543 325.295" xml:space="preserve"><metadata id="metadata11"/><defs id="defs3"><linearGradient id="linearGradient1474"><stop style="stop-color:#00002c;stop-opacity:1" id="stop1470" offset="0"/><stop style="stop-color:#00002c;stop-opacity:0" id="stop1472" offset="1"/></linearGradient><linearGradient id="linearGradient1456"><stop style="stop-color:#000;stop-opacity:1" id="stop1452" offset="0"/><stop style="stop-color:#000;stop-opacity:0" id="stop1454" offset="1"/></linearGradient><linearGradient id="linearGradient1448"><stop style="stop-color:#000034;stop-opacity:1" id="stop1444" offset="0"/><stop style="stop-color:#000034;stop-opacity:0" id="stop1446" offset="1"/></linearGradient><radialGradient id="radialGradient1450" cx="424.645" cy="165.082" r="4.106" fx="424.645" fy="165.082" gradientTransform="matrix(1,0,0,8.7530407,0,-1279.8868)" gradientUnits="userSpaceOnUse" xlink:href="#linearGradient1448"/><linearGradient id="linearGradient1458" x1="214.765" x2="430.545" y1="70.189" y2="70.189" gradientUnits="userSpaceOnUse" xlink:href="#linearGradient1456"/><linearGradient id="linearGradient1476" x1="215.062" x2="419.235" y1="107.404" y2="107.404" gradientUnits="userSpaceOnUse" xlink:href="#linearGradient1474"/></defs><path id="path3910" fill="#D7D7F4" stroke="#000" stroke-linecap="round" stroke-linejoin="round" d="M224.757,6.177l205.288,122.462l-9.313,5.563L215.265,11.608L224.757,6.177z" style="fill:url(#linearGradient1458);fill-opacity:1"/><path id="path3918" fill="#B3B3B3" stroke="#000" stroke-linecap="round" stroke-linejoin="round" d="M430.043,128.651v68l-9.311,5.555v-68L430.043,128.651z"/><path id="path6059" fill="#B3B3B3" stroke="#000" d="M299.065,118.563l-9.312,5.556 l37.155,22.163l9.25-5.594L299.065,118.563z"/><path id="path6053" d="m 215.265,11.608 205.451,122.629 v 68 l -93.813,-55.969 v 0 L 289.747,124.08 v -0.031 L 215.736,79.886 Z" style="fill:#f2f2f2;stroke:#000;stroke-linecap:round;stroke-linejoin:round"/><path style="fill:url(#linearGradient1476);fill-opacity:1;stroke:#000;stroke-width:.35714287;stroke-opacity:1" id="path3343" d="m 372.46468,173.44743 c -25.56708,-15.2525 -54.49565,-32.51675 -64.28571,-38.365 -9.79006,-5.84825 -34.59475,-20.65991 -55.12154,-32.9148 L 215.736,79.886 215.5178,69.58652 c -0.12002,-5.664714 -0.24055,-20.642574 -0.26786,-33.284125 -0.0394,-18.259414 0.0421,-22.948455 0.39678,-22.808635 0.60084,0.23688 202.87324,120.96387 203.21614,121.29027 0.14835,0.1412 0.2287,15.13789 0.17857,33.32597 l -0.0911,33.06924 -46.48561,-27.73181 z"/><path style="fill:#000;fill-opacity:1;stroke:#000;stroke-width:.35714287;stroke-opacity:1" id="path3345" d="m 320.38388,73.294767 c -55.6875,-33.252421 -101.5331,-60.678139 -101.87912,-60.94604 -0.56718,-0.439128 -0.237,-0.712302 3.35309,-2.7742202 3.06279,-1.759071 4.11508,-2.204706 4.55769,-1.930137 0.31652,0.196345 46.05763,27.4814162 101.64691,60.6334902 55.58929,33.15207 101.19894,60.39277 101.35477,60.5349 0.2172,0.19809 -7.44796,5.13848 -7.72204,4.97706 -0.0337,-0.0199 -45.6238,-27.24263 -101.3113,-60.495053 z"/><path style="fill:url(#radialGradient1450);fill-opacity:1;stroke:#000;stroke-width:.35527558;stroke-miterlimit:4;stroke-dasharray:none" id="path3347" d="M 420.716,167.46839 V 134.237 l 3.125,-1.87409 c 1.71875,-1.03075 3.48661,-2.10467 3.92857,-2.38648 l 0.80357,-0.51238 v 33.23139 33.23138 l -3.125,1.87409 c -1.71875,1.03075 -3.48661,2.10467 -3.92857,2.38648 l -0.80357,0.51238 z"/></svg>