<svg xmlns="http://www.w3.org/2000/svg" xmlns:svg="http://www.w3.org/2000/svg" id="svg2" width="430.543" height="325.295" x="0" y="0" enable-background="new 0 0 430.543 325.295" version="1.1" viewBox="0 0 430.543 325.295" xml:space="preserve"><metadata id="metadata10"/><path id="path6053" fill="#F2F2F2" d="M215.271,11.589 l205.451,122.629v68l-93.813-55.969l0,0l-37.156-22.188v-0.031l-74.011-44.163L215.271,11.589z" style="fill:#212121;fill-opacity:1"/><path id="path3910" fill="#D7D7F4" d="M224.757,6.177 l205.288,122.462l-9.313,5.563L215.265,11.608L224.757,6.177z" style="fill:#ded712;fill-opacity:1"/><path id="path3918" fill="#B3B3B3" d="M430.043,128.651v68l-9.311,5.555v-68L430.043,128.651z"/><path style="opacity:.77399998;fill:red;fill-opacity:1;stroke:#060606;stroke-width:0;stroke-miterlimit:4;stroke-dasharray:none;stroke-opacity:1" id="path817" d="m 246.47721,64.675658 -10.1789,-4.553042 -10.25105,4.388188 1.18475,-11.087677 -7.34117,-8.393303 10.91112,-2.29952 5.71396,-9.575535 5.55869,9.666496 10.87259,2.475298 -7.47565,8.273743 z"/><path style="opacity:.77399998;fill:red;fill-opacity:1;stroke:#060606;stroke-width:0;stroke-miterlimit:4;stroke-dasharray:none;stroke-opacity:1" id="path819" d="m 271.73103,88.91932 -3.33255,-10.817345 -10.20757,-4.891474 9.2581,-6.512187 1.49775,-11.219518 9.05437,6.792592 11.13323,-2.04257 -3.66219,10.71024 5.38296,9.957141 -11.31773,-0.1733 z"/><path style="opacity:.77399998;fill:red;fill-opacity:1;stroke:#060606;stroke-width:0;stroke-miterlimit:4;stroke-dasharray:none;stroke-opacity:1" id="path821" d="m 322.23865,115.18329 -11.00935,0.44041 -7.14632,8.38629 -3.82093,-10.33442 -10.18416,-4.20505 8.64788,-6.82743 0.85216,-10.985154 9.16561,6.114837 10.71084,-2.584149 -2.98323,10.606606 z"/><path style="opacity:.77399998;fill:red;fill-opacity:1;stroke:#060606;stroke-width:0;stroke-miterlimit:4;stroke-dasharray:none;stroke-opacity:1" id="path823" d="m 366.68537,136.39648 7.26997,-4.259 1.80401,-8.23025 6.29709,5.59804 8.38491,-0.82757 -3.37815,7.71878 3.37815,7.71879 -8.38491,-0.82758 -6.29709,5.59805 -1.80401,-8.23025 z"/><path style="opacity:.77399998;fill:red;fill-opacity:1;stroke:#060606;stroke-width:0;stroke-miterlimit:4;stroke-dasharray:none;stroke-opacity:1" id="path825" d="m 322.23866,115.18328 -6.23769,-3.32677 -6.67613,2.325 1.23639,-6.96043 -4.27424,-5.63091 7.00183,-0.97501 4.0345,-5.805093 3.09097,6.357843 6.7677,2.04316 -5.0915,4.90437 z"/><path style="opacity:.77399998;fill:red;fill-opacity:1;stroke:#060606;stroke-width:0;stroke-miterlimit:4;stroke-dasharray:none;stroke-opacity:1" id="path827" d="m 367.69553,138.41679 -22.21341,-19.68854 -13.31751,26.16625 11.86059,-27.2103 -29.00092,-4.57988 29.54366,2.87164 -4.60605,-28.996773 6.3984,28.985073 26.15423,-13.34111 -25.58924,15.04212 z" transform="matrix(1.0564414,0,0,0.49648941,0.77601912,78.821455)"/></svg>