<svg xmlns="http://www.w3.org/2000/svg" xmlns:svg="http://www.w3.org/2000/svg" id="svg8" width="460" height="440" version="1.1" viewBox="0 0 121.708 116.417"><metadata id="metadata5"/><g id="layer1" transform="translate(-33.261906,-106.5)"><rect style="opacity:1;fill:red;fill-rule:evenodd;stroke-width:.26458332" id="rect26" width="121.708" height="116.417" x="33.262" y="106.5"/><path style="opacity:1;fill:#ff0;fill-rule:evenodd;stroke-width:.26458332" id="path28" d="m 58.208332,135.98214 -6.130297,-7.02178 -6.675946,6.50521 4.783743,-8.00011 -8.249797,-4.33899 9.086813,2.07744 1.577291,-9.18684 0.832216,9.28404 9.224616,-1.3388 -8.572474,3.66041 z"/><path style="opacity:1;fill:#ff0;fill-rule:evenodd;stroke-width:.26458332" id="path28-1" d="m 94.358257,140.67301 -6.130297,-7.02178 -6.675946,6.5052 4.783743,-8.00011 -8.249797,-4.33898 9.086813,2.07744 1.577291,-9.18684 0.832216,9.28403 9.224617,-1.33879 -8.572475,3.66041 z"/><path style="opacity:1;fill:#ff0;fill-rule:evenodd;stroke-width:.26458332" id="path28-0" d="m 138.2035,135.38135 -6.13029,-7.02178 -6.67595,6.5052 4.78374,-8.0001 -8.24979,-4.33899 9.08681,2.07744 1.57729,-9.18684 0.83222,9.28404 9.22461,-1.3388 -8.57247,3.66041 z"/><path style="opacity:1;fill:#ff0;fill-rule:evenodd;stroke-width:.26458332" id="path28-8" d="m 118.54873,170.9111 -6.1303,-7.02177 -6.67595,6.5052 4.78374,-8.00011 -8.24979,-4.33898 9.08681,2.07744 1.57729,-9.18685 0.83222,9.28404 9.22461,-1.3388 -8.57247,3.66041 z"/><path style="opacity:1;fill:#ff0;fill-rule:evenodd;stroke-width:.26458332" id="path28-7" d="m 83.774922,176.20276 -6.130298,-7.02178 -6.675946,6.50521 4.783743,-8.00011 -8.249797,-4.33899 9.086813,2.07744 1.577291,-9.18684 0.832216,9.28404 9.224617,-1.3388 -8.572475,3.66041 z"/><path style="opacity:1;fill:#ff0;fill-rule:evenodd;stroke-width:.26458332" id="path28-17" d="m 57.316589,175.44683 -6.130297,-7.02178 -6.675946,6.5052 4.783743,-8.00011 -8.249797,-4.33898 9.086813,2.07744 1.577291,-9.18684 0.832216,9.28403 9.224617,-1.3388 -8.572475,3.66042 z"/><path style="opacity:1;fill:#ff0;fill-rule:evenodd;stroke-width:.26458332" id="path28-9" d="m 66.38802,214.00038 -6.130298,-7.02178 -6.675945,6.50521 4.783742,-8.00011 -8.249797,-4.33898 9.086813,2.07744 1.577291,-9.18685 0.832217,9.28404 9.224616,-1.3388 -8.572475,3.66041 z"/><path style="opacity:1;fill:#ff0;fill-rule:evenodd;stroke-width:.26458332" id="path28-4" d="m 91.334446,210.97658 -6.130297,-7.02178 -6.675946,6.5052 4.783743,-8.0001 -8.249797,-4.33899 9.086813,2.07744 1.57729,-9.18684 0.832217,9.28404 9.224616,-1.3388 -8.572475,3.66041 z"/><path style="opacity:1;fill:#ff0;fill-rule:evenodd;stroke-width:.26458332" id="path28-3" d="m 122.3285,210.97658 -6.13029,-7.02178 -6.67595,6.5052 4.78374,-8.0001 -8.24979,-4.33899 9.08681,2.07744 1.57729,-9.18684 0.83222,9.28404 9.22461,-1.3388 -8.57247,3.66041 z"/><path style="opacity:1;fill:#ff0;fill-rule:evenodd;stroke-width:.26458332" id="path28-94" d="m 146.51896,182.25038 -6.13029,-7.02178 -6.67595,6.50521 4.78374,-8.00011 -8.24979,-4.33898 9.08681,2.07744 1.57729,-9.18685 0.83222,9.28404 9.22461,-1.3388 -8.57247,3.66041 z"/></g></svg>