<svg xmlns="http://www.w3.org/2000/svg" xmlns:svg="http://www.w3.org/2000/svg" xmlns:xlink="http://www.w3.org/1999/xlink" id="svg2" width="500" height="320" version="1.1" viewBox="0 0 400 320" style="fill:none;stroke:#000;stroke-linecap:round"><metadata id="metadata86"/><defs id="defs4"><path id="r1"><animate id="p1" attributeName="d" dur="6s" repeatCount="indefinite" values="m160,160l0,0 0,0;m130,110l30,-17 30,17;m130,60l30,-17 30,17;m160,20l0,0 0,0"/><animate attributeName="stroke-width" begin="p1.begin" dur="6s" repeatCount="indefinite" values="0;4;4;4;0"/></path><path id="r2"><animate attributeName="d" begin="p1.begin+1s" dur="6s" repeatCount="indefinite" values="m160,160l0,0 0,0;m130,110l30,-17 30,17;m130,60l30,-17 30,17;m160,20l0,0 0,0"/><animate attributeName="stroke-width" begin="p1.begin+1s" dur="6s" repeatCount="indefinite" values="0;4;4;4;0"/></path><path id="r3"><animate attributeName="d" begin="p1.begin+2s" dur="6s" repeatCount="indefinite" values="m160,160l0,0 0,0;m130,110l30,-17 30,17;m130,60l30,-17 30,17;m160,20l0,0 0,0"/><animate attributeName="stroke-width" begin="p1.begin+2s" dur="6s" repeatCount="indefinite" values="0;4;4;4;0"/></path><path id="r4"><animate id="p1" attributeName="d" begin="p1.begin+3s" dur="6s" repeatCount="indefinite" values="m160,160l0,0 0,0;m130,110l30,-17 30,17;m130,60l30,-17 30,17;m160,20l0,0 0,0"/><animate attributeName="stroke-width" begin="p1.begin+3s" dur="6s" repeatCount="indefinite" values="0;4;4;4;0"/></path><path id="r5"><animate attributeName="d" begin="p1.begin+4s" dur="6s" repeatCount="indefinite" values="m160,160l0,0 0,0;m130,110l30,-17 30,17;m130,60l30,-17 30,17;m160,20l0,0 0,0"/><animate attributeName="stroke-width" begin="p1.begin+4s" dur="6s" repeatCount="indefinite" values="0;4;4;4;0"/></path><path id="r6"><animate attributeName="d" begin="p1.begin+5s" dur="6s" repeatCount="indefinite" values="m160,160l0,0 0,0;m130,110l30,-17 30,17;m130,60l30,-17 30,17;m160,20l0,0 0,0"/><animate attributeName="stroke-width" begin="p1.begin+5s" dur="6s" repeatCount="indefinite" values="0;4;4;4;0"/></path></defs><use id="use12" width="100%" height="100%" x="0" y="0" transform="translate(6,0)" xlink:href="#r1" style="fill:#000"/><use id="use14" width="100%" height="100%" x="0" y="0" transform="matrix(0.5,0.8660254,-0.8660254,0.5,224.56406,-58.564065)" xlink:href="#r1" style="fill:#000"/><use id="use16" width="100%" height="100%" x="0" y="0" transform="matrix(-0.5,0.8660254,-0.8660254,-0.5,384.56406,101.43594)" xlink:href="#r1" style="fill:#000"/><use id="use18" width="100%" height="100%" x="0" y="0" transform="matrix(-1,0,0,-1,326,320)" xlink:href="#r1" style="fill:#000"/><use id="use20" width="100%" height="100%" x="0" y="0" transform="matrix(-0.5,-0.8660254,0.8660254,-0.5,107.43594,378.56406)" xlink:href="#r1" style="fill:#000"/><use id="use22" width="100%" height="100%" x="0" y="0" transform="matrix(0.5,-0.8660254,0.8660254,0.5,-52.564065,218.56406)" xlink:href="#r1" style="fill:#000"/><use id="use24" width="100%" height="100%" x="0" y="0" transform="matrix(0.8660254,0.5,-0.5,0.8660254,107.43594,-58.564065)" xlink:href="#r2" style="fill:#000"/><use id="use26" width="100%" height="100%" x="0" y="0" transform="matrix(0,1,-1,0,326,0)" xlink:href="#r2" style="fill:#000"/><use id="use28" width="100%" height="100%" x="0" y="0" transform="matrix(-0.8660254,0.5,-0.5,-0.8660254,384.56406,218.56406)" xlink:href="#r2" style="fill:#000"/><use id="use30" width="100%" height="100%" x="0" y="0" transform="matrix(-0.8660254,-0.5,0.5,-0.8660254,224.56406,378.56406)" xlink:href="#r2" style="fill:#000"/><use id="use32" width="100%" height="100%" x="0" y="0" transform="matrix(0,-1,1,0,6,320)" xlink:href="#r2" style="fill:#000"/><use id="use34" width="100%" height="100%" x="0" y="0" transform="matrix(0.8660254,-0.5,0.5,0.8660254,-52.564065,101.43594)" xlink:href="#r2" style="fill:#000"/><use id="use36" width="100%" height="100%" x="0" y="0" transform="translate(6,0)" xlink:href="#r3" style="fill:#000"/><use id="use38" width="100%" height="100%" x="0" y="0" transform="matrix(0.5,0.8660254,-0.8660254,0.5,224.56406,-58.564065)" xlink:href="#r3" style="fill:#000"/><use id="use40" width="100%" height="100%" x="0" y="0" transform="matrix(-0.5,0.8660254,-0.8660254,-0.5,384.56406,101.43594)" xlink:href="#r3" style="fill:#000"/><use id="use42" width="100%" height="100%" x="0" y="0" transform="matrix(-1,0,0,-1,326,320)" xlink:href="#r3" style="fill:#000"/><use id="use44" width="100%" height="100%" x="0" y="0" transform="matrix(-0.5,-0.8660254,0.8660254,-0.5,107.43594,378.56406)" xlink:href="#r3" style="fill:#000"/><use id="use46" width="100%" height="100%" x="0" y="0" transform="matrix(0.5,-0.8660254,0.8660254,0.5,-52.564065,218.56406)" xlink:href="#r3" style="fill:#000"/><use id="use48" width="100%" height="100%" x="0" y="0" transform="matrix(0.8660254,0.5,-0.5,0.8660254,107.43594,-58.564065)" xlink:href="#r4" style="fill:#000"/><use id="use50" width="100%" height="100%" x="0" y="0" transform="matrix(0,1,-1,0,326,0)" xlink:href="#r4" style="fill:#000"/><use id="use52" width="100%" height="100%" x="0" y="0" transform="matrix(-0.8660254,0.5,-0.5,-0.8660254,384.56406,218.56406)" xlink:href="#r4" style="fill:#000"/><use id="use54" width="100%" height="100%" x="0" y="0" transform="matrix(-0.8660254,-0.5,0.5,-0.8660254,224.56406,378.56406)" xlink:href="#r4" style="fill:#000"/><use id="use56" width="100%" height="100%" x="0" y="0" transform="matrix(0,-1,1,0,6,320)" xlink:href="#r4" style="fill:#000"/><use id="use58" width="100%" height="100%" x="0" y="0" transform="matrix(0.8660254,-0.5,0.5,0.8660254,-52.564065,101.43594)" xlink:href="#r4" style="fill:#000"/><use id="use60" width="100%" height="100%" x="0" y="0" transform="translate(6,0)" xlink:href="#r5" style="fill:#000"/><use id="use62" width="100%" height="100%" x="0" y="0" transform="matrix(0.5,0.8660254,-0.8660254,0.5,224.56406,-58.564065)" xlink:href="#r5" style="fill:#000"/><use id="use64" width="100%" height="100%" x="0" y="0" transform="matrix(-0.5,0.8660254,-0.8660254,-0.5,384.56406,101.43594)" xlink:href="#r5" style="fill:#000"/><use id="use66" width="100%" height="100%" x="0" y="0" transform="matrix(-1,0,0,-1,326,320)" xlink:href="#r5" style="fill:#000"/><use id="use68" width="100%" height="100%" x="0" y="0" transform="matrix(-0.5,-0.8660254,0.8660254,-0.5,107.43594,378.56406)" xlink:href="#r5" style="fill:#000"/><use id="use70" width="100%" height="100%" x="0" y="0" transform="matrix(0.5,-0.8660254,0.8660254,0.5,-52.564065,218.56406)" xlink:href="#r5" style="fill:#000"/><use id="use72" width="100%" height="100%" x="0" y="0" transform="matrix(0.8660254,0.5,-0.5,0.8660254,107.43594,-58.564065)" xlink:href="#r6" style="fill:#000"/><use id="use74" width="100%" height="100%" x="0" y="0" transform="matrix(0,1,-1,0,326,0)" xlink:href="#r6" style="fill:#000"/><use id="use76" width="100%" height="100%" x="0" y="0" transform="matrix(-0.8660254,0.5,-0.5,-0.8660254,384.56406,218.56406)" xlink:href="#r6" style="fill:#000"/><use id="use78" width="100%" height="100%" x="0" y="0" transform="matrix(-0.8660254,-0.5,0.5,-0.8660254,224.56406,378.56406)" xlink:href="#r6" style="fill:#000"/><use id="use80" width="100%" height="100%" x="0" y="0" transform="matrix(0,-1,1,0,6,320)" xlink:href="#r6" style="fill:#000"/><use id="use82" width="100%" height="100%" x="0" y="0" transform="matrix(0.8660254,-0.5,0.5,0.8660254,-52.564065,101.43594)" xlink:href="#r6" style="fill:#000"/></svg>