<svg xmlns="http://www.w3.org/2000/svg" xmlns:svg="http://www.w3.org/2000/svg" id="svg2" width="430.543" height="325.295" x="0" y="0" enable-background="new 0 0 430.543 325.295" version="1.1" viewBox="0 0 430.543 325.295" xml:space="preserve"><metadata id="metadata22199"/><g id="layer1" transform="translate(-53.643411,-569.625)"><path id="path3910" fill="#D7D7F4" d="M268.925,570.139 L54.144,698.264l9.313,5.563l205.469-122.594l9.281-5.563L268.925,570.139z"/><path id="path3918" fill="#F2F2F2" d="M54.145,698.276v68l9.312,5.555v-68L54.145,698.276z"/><path id="path5998" fill="none" d="M54.21,764.597l9.312,5.556L63.49,759.09l-9.25-5.531 L54.21,764.597z"/><path id="path6000" fill="none" d="M54.179,753.534l9.312,5.556l-0.031-11.063l-9.25-5.531 L54.179,753.534z"/><path id="path6002" fill="none" d="M54.209,742.496l9.311,5.556l-0.031-11.063l-9.25-5.531 L54.209,742.496z"/><path id="path6004" fill="none" d="M54.239,731.458l9.311,5.557l-0.031-11.063l-9.25-5.531 L54.239,731.458z"/><path id="path6006" fill="none" d="M54.207,720.396l9.312,5.556l-0.031-11.063l-9.25-5.531 L54.207,720.396z"/><path id="path6008" fill="none" d="M54.176,709.333l9.312,5.556l-0.031-11.063l-9.25-5.531 L54.176,709.333z"/><path id="path6042" fill="#F2F2F2" d="M185.214,632.973 l-0.089,55.214l9.312,5.556l0.031-55.25L185.214,632.973z"/><path id="path6059" fill="#F2F2F2" d="M185.125,688.188l9.312,5.556l-37.155,22.163l-9.25-5.594 L185.125,688.188z"/><path id="path6053" fill="#B3B3B3" d="M278.206,575.67 L63.469,703.844v68l93.812-55.969l0.03-55.194l37.156-22.188l-0.03,55.163l83.769-49.986V575.67z"/><path style="fill:#000;stroke-width:.50507629" id="path22244" d="M 9.9866759,168.00292 V 134.49149 L 116.73271,70.775739 C 175.44304,35.732072 223.62731,7.0599834 223.80888,7.0599834 c 0.18158,0 0.32833,15.0575866 0.32612,33.4613026 l -0.004,33.461303 -22.59815,13.466147 c -12.42898,7.406382 -31.19169,18.593764 -41.69492,24.860844 l -19.09677,11.39471 0.36142,-27.512502 c 0.21499,-16.366229 0.17604,-27.509949 -0.0961,-27.506196 -0.25164,0.0035 -8.75341,4.953576 -18.89282,11.000243 l -18.43528,10.993939 -0.25254,27.749866 -0.25254,27.74986 -46.378275,27.66743 c -25.508027,15.21707 -46.475005,27.66742 -46.59326,27.66742 -0.118255,0 -0.2150091,-15.08015 -0.2150091,-33.51143 z" transform="translate(53.643411,569.625)"/><path style="fill:#000;stroke-width:.50507629" id="path22246" d="M 6.0410261,131.62529 C 4.0098147,130.4167 2.1237975,129.20373 1.8498768,128.92982 1.522544,128.60248 37.962709,106.59268 108.16535,64.715424 166.91277,29.671428 215.12877,0.9990682 215.31201,0.9990682 c 0.49925,0 8.32293,4.7469704 8.31553,5.0453973 -0.004,0.1418471 -5.40152,3.4796199 -11.99556,7.4172725 C 187.61333,27.804552 168.88751,38.972408 147.8725,51.487123 136.06634,58.517846 122.54292,66.591091 117.82046,69.42767 113.098,72.264249 97.415378,81.633318 82.970197,90.247828 68.525015,98.862338 46.18181,112.19338 33.318629,119.87235 20.455448,127.55133 9.8867274,133.83156 9.8325827,133.82843 9.778438,133.8254 8.0722373,132.83388 6.0410261,131.62529 Z" transform="translate(53.643411,569.625)"/><path style="fill:#000;stroke-width:.50507629" id="path22248" d="m 5.065491,199.11276 -4.16357065,-2.39664 -0.003309,-33.69799 c -0.003131,-31.88348 0.0442851,-33.68016 0.88057485,-33.36699 0.4861359,0.18205 2.4180526,1.30985 4.2931483,2.50622 l 3.4092648,2.17522 v 33.59088 c 0,18.47499 -0.056821,33.58978 -0.126269,33.58842 -0.069448,-0.002 -1.9998759,-1.08096 -4.2898393,-2.39912 z" transform="translate(53.643411,569.625)"/><path style="fill:#f2f2f2" id="path3916" d="m 53.585156,699.65656 v 68 l 9.311,5.555 v -68 z"/><path style="fill:#fff;stroke-width:.50507629" id="path4049" d="m 62.931293,739.29011 c 0,-18.75096 0.06297,-26.42181 0.139935,-17.04633 0.07696,9.37548 0.07696,24.71717 0,34.09265 -0.07696,9.37548 -0.139935,1.70463 -0.139935,-17.04632 z"/><path style="fill:#fff" id="path4051" d="m 76.823158,715.98843 -4.495961,-0.77333 -3.185878,3.26525 -0.653849,-4.51489 -4.089931,-2.02093 4.09186,-2.01702 0.658163,-4.51426 3.182757,3.2683 4.496697,-0.76903 -2.124808,4.03694 z"/><path style="fill:#fff" id="path4059" d="m 81.36884,739.22194 -6.741994,-1.53498 -5.086619,4.68368 -0.623538,-6.88635 -6.026305,-3.39032 6.356627,-2.72102 1.362158,-6.77902 4.552149,5.20466 6.868165,-0.79934 -3.543244,5.93768 z"/><path style="fill:#fff" id="path4061" d="m 97.026211,723.56455 -2.550695,0.13676 -1.333367,2.17873 -0.918276,-2.38359 -2.484132,-0.59484 1.983169,-1.60991 -0.201911,-2.54636 2.143942,1.38861 2.359344,-0.97889 -0.65814,2.46811 z"/><path style="fill:#fff" id="path4065" d="m 97.026206,738.21179 -0.624891,4.79673 3.597171,3.23411 -4.755062,0.88796 -1.964234,4.42051 -2.313899,-4.24794 -4.811134,-0.50208 3.324994,-3.51334 -1.009211,-4.73081 4.368859,2.07658 z"/><path style="fill:#fff" id="path4067" d="m 73.287624,754.87923 0.281307,3.60144 3.126257,1.80998 -3.338243,1.38044 -0.755324,3.53256 -2.344455,-2.74828 -3.593072,0.37327 1.88929,-3.07897 -1.465317,-3.30187 3.5121,0.84536 z"/><path style="fill:#fff" id="path4069" d="m 103.5922,701.34115 -4.49596,-0.77333 -3.185878,3.26525 -0.653849,-4.51488 -4.089931,-2.02093 4.09186,-2.01703 0.658163,-4.51426 3.182757,3.2683 4.496698,-0.76903 -2.12481,4.03694 z"/><path style="fill:#fff" id="path4071" d="m 117.22925,713.96811 -5.54671,-0.62878 -3.66248,4.21277 -1.11602,-5.46953 -5.13836,-2.18141 4.85697,-2.75158 0.4868,-5.56096 4.11779,3.76896 5.43922,-1.25545 -2.31203,5.08093 z"/><path style="fill:#fff" id="path4078" d="m 111.16835,730.6356 -2.69914,-0.16401 -1.66528,2.13051 -0.6781,-2.61771 -2.54083,-0.92542 2.28005,-1.45383 0.095,-2.70244 2.08724,1.71919 2.59953,-0.74478 -0.99006,2.51635 z"/><path style="fill:#fff" id="path4080" d="m 116.64678,723.87705 3.30456,-0.88284 1.14614,-3.22272 1.8608,2.87001 3.41917,0.0942 -2.15453,2.65661 0.96702,3.28092 -3.19237,-1.22814 -2.82151,1.93355 0.18153,-3.41564 z"/><path style="fill:#fff" id="path80" d="m 128.77363,686.98904 -3.89442,-1.07021 -3.08942,2.60142 -0.18562,-4.03453 -3.42878,-2.13433 3.77971,-1.42327 0.97032,-3.9205 2.5216,3.15489 4.02847,-0.28867 -2.22127,3.3731 z"/><path style="fill:#fff" id="path84" d="m 138.94753,706.87667 -6.30057,0.1173 -3.47526,5.25676 -2.05854,-5.95595 -6.07339,-1.68074 5.02832,-3.79829 -0.2783,-6.29551 5.16622,3.60848 5.90139,-2.2101 -1.83543,6.02845 z"/><path style="fill:#fff" id="path88" d="m 145.55415,712.95796 -0.42586,-4.65218 -4.07378,-2.28659 4.2929,-1.84261 0.9158,-4.58099 3.07901,3.51338 4.63978,-0.54462 -2.38996,4.01401 1.95173,4.24439 -4.55608,-1.03259 z"/><path style="fill:#fff" id="path90" d="m 136.92723,718.00869 2.39836,0.31244 1.61706,-1.79858 0.44398,2.37753 2.21025,0.98211 -2.12396,1.15695 -0.25105,2.40557 -1.75666,-1.6625 -2.36541,0.50461 1.03829,-2.18443 z"/><path style="fill:#fff" id="path92" d="m 140.50337,683.66346 0.035,-6.74978 -5.54045,-3.85541 6.43025,-2.05248 1.95462,-6.46067 3.93908,5.48128 6.74847,-0.13751 -3.99576,5.4401 2.21616,6.37569 -6.40859,-2.11912 z"/><path style="fill:#fff" id="path109" d="m 204.10237,654.36906 0.33191,-6.14824 -4.87662,-3.75895 5.94989,-1.58425 2.06802,-5.79951 3.34533,5.16912 6.15472,0.17465 -3.88237,4.77895 1.73581,5.90745 -5.74476,-2.21557 z"/><path style="fill:#fff" id="path114" d="m 240.46785,657.39958 0.621,-4.04675 -2.98156,-2.80574 4.04059,-0.65991 1.74705,-3.70265 1.87622,3.6389 4.06131,0.51737 -2.88102,2.90888 0.76297,4.0224 -3.65679,-1.84112 z"/><path style="fill:#fff" id="path116" d="m 223.80033,662.45027 3.16002,-1.93359 0.19862,-3.69933 2.81545,2.40784 3.57964,-0.95425 -1.41997,3.42171 2.01373,3.10957 -3.69305,-0.29311 -2.33509,2.87607 -0.86246,-3.60286 z"/><path style="fill:#fff" id="path118" d="m 213.19376,665.98577 -0.74219,-1.50384 -1.65959,-0.24116 1.20089,-1.17057 -0.2835,-1.65289 1.48439,0.78039 1.48438,-0.78039 -0.28349,1.65289 1.20089,1.17057 -1.65959,0.24116 z"/><path style="fill:#fff" id="path120" d="m 224.61293,628.14806 6.75367,-0.71495 3.23981,-5.96882 2.76695,6.20219 6.67784,1.23677 -5.04359,4.54811 0.88733,6.73319 -5.88407,-3.3913 -6.12945,2.92457 1.40705,-6.64405 z"/><path style="fill:#fff" id="path126" d="m 213.19374,623.05433 -0.43753,-2.40225 -2.22697,-1.00145 2.14948,-1.15846 0.26426,-2.42743 1.76598,1.68629 2.39029,-0.49879 -1.05804,2.20064 1.21302,2.11917 -2.41989,-0.32622 z"/><path style="fill:#fff" id="path128" d="m 246.02375,610.93245 6.6208,-4.01561 0.44547,-7.73057 5.86501,5.05586 7.48987,-1.96522 -2.99602,7.14032 4.18353,6.516 -7.71666,-0.64291 -4.90431,5.99233 -1.77314,-7.53765 z"/><path style="fill:#fff" id="path132" d="m 233.39679,-604.45573 0.0156,-2.9999 -2.46242,-1.71351 2.85789,-0.91222 0.86872,-2.87141 1.7507,2.43613 2.99932,-0.0611 -1.77589,2.41782 0.98496,2.83363 -2.84827,-0.94182 z" transform="scale(1,-1)"/><path style="fill:#fff" id="path134" d="m 254.60643,645.13107 0.0273,-5.24983 -4.30924,-2.99865 5.00131,-1.59638 1.52026,-5.02496 3.06372,4.26321 5.24881,-0.10694 -3.10781,4.23118 1.72368,4.95887 -4.98446,-1.6482 z"/><path style="fill:#000;stroke-width:.50507629" id="path22324" d="M 4.6833751,200.56602 0.64276491,198.18748 0.52214436,164.11677 c -0.0663413,-18.7389 0.0473009,-33.82447 0.25253814,-33.52351 0.20523728,0.30096 2.0430846,1.53324 4.084105,2.73841 2.0410208,1.20516 3.8045274,2.43626 3.918904,2.73579 0.1143765,0.29952 0.1490834,15.4694 0.077126,33.71085 l -0.1308319,33.16626 z" transform="translate(53.643411,569.625)"/><path style="fill:#fff" id="path22328" d="m 205.67137,675.71691 -1.06632,3.14445 1.98582,2.66103 -3.32006,-0.0424 -1.91715,2.71092 -0.98559,-3.17067 -3.17068,-0.9856 2.71093,-1.91714 -0.0424,-3.32006 2.66104,1.98581 z"/><path style="fill:#fff" id="path22336" d="m 274.86681,591.87427 -2.39447,-1.06242 -2.23266,1.3702 0.27049,-2.60558 -1.99307,-1.69997 2.56164,-0.54792 1.00087,-2.42084 1.3127,2.26695 2.61164,0.2038 -1.75035,1.94898 z"/><path style="fill:#fff" id="path132-3" d="m 267.9197,631.28811 0.0156,-2.9999 -2.46242,-1.71352 2.85788,-0.91221 0.86872,-2.87141 1.75071,2.43612 2.99931,-0.0611 -1.77589,2.41782 0.98496,2.83364 -2.84826,-0.94183 z"/><path style="fill:#fff" id="path132-8" d="m 146.95023,696.37685 0.0156,-2.9999 -2.46242,-1.71351 2.85789,-0.91222 0.86872,-2.87141 1.7507,2.43613 2.99932,-0.0611 -1.7759,2.41782 0.98497,2.83363 -2.84827,-0.94182 z"/><path style="fill:#fff" id="path132-9" d="m 186.20733,640.61263 0.0156,-2.9999 -2.46242,-1.71352 2.85789,-0.91221 0.86872,-2.87141 1.7507,2.43613 2.99932,-0.0611 -1.77589,2.41783 0.98496,2.83363 -2.84826,-0.94182 z"/><path style="fill:#4d4d4d;stroke-width:.50507629" id="path22373" d="m 104.03946,140.28751 0.14394,-5.16337 13.65098,-8.12347 13.65098,-8.12347 4.43858,2.60513 4.43858,2.60513 -17.91784,10.68171 c -9.85481,5.87494 -18.05988,10.68171 -18.23349,10.68171 -0.17362,0 -0.25089,-2.32351 -0.17173,-5.16337 z" transform="translate(53.643411,569.625)"/><path style="fill:#1a1a1a;stroke-width:.50507629" id="path22375" d="m 104.43594,140.20367 v -4.82452 l 11.99556,-7.13904 c 6.59756,-3.92647 12.68102,-7.55537 13.5188,-8.06422 l 1.52324,-0.92519 4.16122,2.42369 4.16123,2.42369 -16.03853,9.47817 c -8.82119,5.213 -16.7772,9.92227 -17.68002,10.46506 l -1.6415,0.98688 z" transform="translate(53.643411,569.625)"/><path style="fill:#1a1a1a;stroke-width:.50507629" id="path22377" d="m 104.46339,140.0634 0.0275,-4.46151 11.92223,-7.07106 c 6.55722,-3.88909 12.6326,-7.48552 13.50085,-7.99208 l 1.57863,-0.921 3.64429,2.10109 c 2.00435,1.15559 3.63427,2.2519 3.62202,2.43623 -0.0182,0.27372 -32.5253,19.64067 -33.90787,20.20148 -0.22828,0.0926 -0.4027,-1.83932 -0.3876,-4.29315 z" transform="translate(53.643411,569.625)"/><path style="fill:#1a1a1a;stroke-width:.50507629" id="path22379" d="m 138.37874,122.59365 c -0.28933,-0.34863 -1.90757,-1.42823 -3.59607,-2.39911 l -3.07001,-1.76524 0.12497,-21.933499 0.12496,-21.9335 4.41942,-2.677457 4.41942,-2.677457 v 19.353621 c 0,23.600442 -0.4085,34.666522 -1.27971,34.666522 -0.3393,0 -0.85364,-0.28525 -1.14298,-0.63388 z" transform="translate(53.643411,569.625)"/><path style="fill:#1a1a1a;stroke-width:.50507629" id="path22385" transform="translate(53.643411,569.625)"/><path style="fill:#1a1a1a;stroke-width:.50507629" id="path22387" d="m 9.7073026,185.85698 c 0,-9.02824 0.068489,-12.72161 0.1521981,-8.20749 0.083709,4.51412 0.083709,11.90086 0,16.41498 -0.083709,4.51412 -0.1521981,0.82075 -0.1521981,-8.20749 z" transform="translate(53.643411,569.625)"/><path style="fill:#000;stroke-width:.50507629" id="path22389" transform="translate(53.643411,569.625)"/><path style="fill:#000;stroke-width:.50507629" id="path22391" transform="translate(53.643411,569.625)"/><path style="fill:#000;stroke-width:.50507629" id="path22393" transform="translate(53.643411,569.625)"/><path style="fill:#000;stroke-width:.50507629" id="path22395" transform="translate(53.643411,569.625)"/><path style="fill:#000;stroke-width:.50507629" id="path22397" transform="translate(53.643411,569.625)"/><path style="fill:#000;stroke-width:.50507629" id="path22399" transform="translate(53.643411,569.625)"/><path style="fill:#000;stroke-width:.50507629" id="path22401" transform="translate(53.643411,569.625)"/></g></svg>