<svg xmlns="http://www.w3.org/2000/svg" xmlns:svg="http://www.w3.org/2000/svg" id="svg2" width="430.544" height="325.295" version="1.1"><metadata id="metadata7"/><g id="layer1" transform="translate(-53.643411,-569.625)"><path id="path3910" d="m 268.90809,570.13899 214.78125,128.125 -9.3125,5.5625 -205.46875,-122.59375 -9.2813,-5.5625 z" style="fill:#d7d7f4;fill-opacity:1;stroke:#000;stroke-width:.2;stroke-linecap:round;stroke-linejoin:round;stroke-opacity:1;stroke-miterlimit:4;stroke-dasharray:none"/><path id="path3918" d="m 483.68752,698.27585 0,68 -9.31125,5.55583 0,-68 z" style="fill:#b3b3b3;stroke:#000;stroke-width:.2;stroke-linecap:round;stroke-linejoin:round;stroke-opacity:1;fill-opacity:1;stroke-miterlimit:4;stroke-dasharray:none"/><path style="fill:#b3b3b3;stroke:#000;stroke-width:.2;stroke-linecap:butt;stroke-linejoin:miter;stroke-opacity:1;fill-opacity:1;stroke-miterlimit:4;stroke-dasharray:none" id="path5998" d="m 483.62314,764.5965 -9.31125,5.55583 0.0312,-11.0625 9.25,-5.53125 z"/><path id="path6000" d="m 483.65438,753.534 -9.31125,5.55583 0.0312,-11.0625 9.25,-5.53125 z" style="fill:#b3b3b3;stroke:#000;stroke-width:.2;stroke-linecap:butt;stroke-linejoin:miter;stroke-opacity:1;fill-opacity:1;stroke-miterlimit:4;stroke-dasharray:none"/><path style="fill:#b3b3b3;stroke:#000;stroke-width:.2;stroke-linecap:butt;stroke-linejoin:miter;stroke-opacity:1;fill-opacity:1;stroke-miterlimit:4;stroke-dasharray:none" id="path6002" d="m 483.62437,742.49608 -9.31124,5.55583 0.0312,-11.0625 9.25,-5.53125 z"/><path id="path6004" d="m 483.59437,731.45816 -9.31125,5.55583 0.0312,-11.0625 9.25,-5.53125 z" style="fill:#b3b3b3;stroke:#000;stroke-width:.2;stroke-linecap:butt;stroke-linejoin:miter;stroke-opacity:1;fill-opacity:1;stroke-miterlimit:4;stroke-dasharray:none"/><path style="fill:#b3b3b3;stroke:#000;stroke-width:.2;stroke-linecap:butt;stroke-linejoin:miter;stroke-opacity:1;fill-opacity:1;stroke-miterlimit:4;stroke-dasharray:none" id="path6006" d="m 483.62561,720.39566 -9.31125,5.55583 0.0312,-11.0625 9.25,-5.53125 z"/><path id="path6008" d="m 483.65685,709.33316 -9.31125,5.55583 0.0312,-11.0625 9.25,-5.53125 z" style="fill:#b3b3b3;stroke:#000;stroke-width:.2;stroke-linecap:butt;stroke-linejoin:miter;stroke-opacity:1;fill-opacity:1;stroke-miterlimit:4;stroke-dasharray:none"/><path id="path6042" d="m 352.61897,632.97332 0.089,55.21418 -9.31125,5.55583 -0.0312,-55.25 z" style="fill:#b3b3b3;stroke:#000;stroke-width:.2;stroke-linecap:round;stroke-linejoin:round;stroke-opacity:1;fill-opacity:1;stroke-miterlimit:4;stroke-dasharray:none"/><path style="fill:#b3b3b3;fill-opacity:1;stroke:#000;stroke-width:.2;stroke-linecap:butt;stroke-linejoin:miter;stroke-opacity:1;stroke-miterlimit:4;stroke-dasharray:none" id="path6059" d="m 352.70802,688.1875 -9.31125,5.55583 37.155,22.16292 9.25,-5.59375 z"/><path id="path6053" d="m 259.62679,575.67024 214.73747,128.17351 0,68 -93.81249,-55.96875 -0.03,-55.19417 -37.15625,-22.1875 0.03,55.16292 -83.76873,-49.98601 z" style="fill:#b6b6b6;fill-opacity:1;stroke:#000;stroke-width:.2;stroke-linecap:round;stroke-linejoin:round;stroke-opacity:1;stroke-miterlimit:4;stroke-dasharray:none"/><flowRoot id="flowRoot4153" transform="matrix(0.56968169,0.34870622,0,1,98.834457,510.57232)" xml:space="preserve" style="font-style:normal;font-weight:400;font-size:40px;line-height:125%;font-family:sans-serif;letter-spacing:0;word-spacing:0;fill:#000;fill-opacity:1;stroke:none;stroke-width:1px;stroke-linecap:butt;stroke-linejoin:miter;stroke-opacity:1"><flowRegion id="flowRegion4155"><rect id="rect4157" width="222.234" height="103.541" x="285.873" y="-25.228"/></flowRegion><flowPara id="flowPara4159">CHECK</flowPara></flowRoot><flowRoot id="flowRoot4153-3" transform="matrix(0.56968169,0.34870622,0,1,221.95653,582.52146)" xml:space="preserve" style="font-style:normal;font-weight:400;font-size:40px;line-height:125%;font-family:sans-serif;letter-spacing:0;word-spacing:0;fill:#000;fill-opacity:1;stroke:none;stroke-width:1px;stroke-linecap:butt;stroke-linejoin:miter;stroke-opacity:1"><flowRegion id="flowRegion4155-6"><rect id="rect4157-7" width="222.234" height="103.541" x="285.873" y="-25.228"/></flowRegion><flowPara id="flowPara4159-5">MATE</flowPara></flowRoot></g></svg>