<svg xmlns="http://www.w3.org/2000/svg" xmlns:svg="http://www.w3.org/2000/svg" id="svg2" width="430.543" height="325.295" x="0" y="0" enable-background="new 0 0 430.543 325.295" version="1.1" viewBox="0 0 430.543 325.295" xml:space="preserve"><metadata id="metadata874"/><g id="layer1" transform="translate(-53.643411,-569.625)"><path id="path3910" fill="#D7D7F4" d="M268.908,570.139 l214.781,128.125l-9.313,5.563L268.908,581.233l-9.281-5.563L268.908,570.139z" style="fill:#3a7c0e;stroke:#006500;stroke-opacity:1;stroke-width:1.75748028;stroke-miterlimit:4;stroke-dasharray:none"/><path id="path3918" d="m 483.687,698.27708 v 67.93779 l -9.311,5.54992 V 703.827 Z" style="fill:#006500;stroke:none;stroke-width:.99954253;stroke-opacity:1;fill-opacity:1"/><path id="path5998" fill="#B3B3B3" d="M483.622,764.597l-9.311,5.556l0.031-11.063l9.25-5.531 L483.622,764.597z" style="fill:#3e8213;stroke:#006500;stroke-opacity:1"/><path id="path6000" fill="#B3B3B3" d="M483.654,753.534l-9.311,5.556l0.031-11.063l9.25-5.531 L483.654,753.534z" style="fill:#3e8213;stroke:#006500;stroke-opacity:1"/><path id="path6002" fill="#B3B3B3" d="M483.624,742.496l-9.311,5.556l0.031-11.063l9.25-5.531 L483.624,742.496z" style="fill:#3e8213;stroke:#006500;stroke-opacity:1"/><path id="path6004" fill="#B3B3B3" d="M483.595,731.458l-9.313,5.557l0.031-11.063l9.25-5.531 L483.595,731.458z" style="fill:#3e8213;stroke:#006500;stroke-opacity:1"/><path id="path6006" fill="#B3B3B3" d="M483.626,720.396l-9.313,5.556l0.031-11.063l9.25-5.531 L483.626,720.396z" style="fill:#3a7c0e;stroke:#006500;stroke-opacity:1"/><path id="path6008" fill="#B3B3B3" d="M483.658,709.333l-9.313,5.556l0.031-11.063l9.25-5.531 L483.658,709.333z" style="fill:#3a7c0e;stroke:#006500;stroke-opacity:1"/><path id="path6042" fill="#B3B3B3" d="M352.618,632.973l0.09,55.214 l-9.312,5.556l-0.031-55.25L352.618,632.973z" style="fill:#3a7c0e;fill-opacity:1;stroke:none;stroke-opacity:1;stroke-width:1.00157478;stroke-miterlimit:4;stroke-dasharray:none"/><path id="path6059" fill="#B3B3B3" d="M352.708,688.188l-9.312,5.556l37.155,22.163l9.25-5.594 L352.708,688.188z" style="fill:#3a7c0e;fill-opacity:1;stroke:#006500;stroke-opacity:1;stroke-width:1.00157478;stroke-miterlimit:4;stroke-dasharray:none"/><path id="path6053" fill="#F2F2F2" d="M259.627,575.67 l214.738,128.173v68l-93.813-55.969l-0.031-55.194l-37.155-22.188l0.03,55.163l-83.769-49.986V575.67z" style="fill:#a3c592;fill-opacity:1;stroke:#006500;stroke-opacity:1;stroke-width:1.37952753;stroke-miterlimit:4;stroke-dasharray:none"/></g></svg>