<svg xmlns="http://www.w3.org/2000/svg" xmlns:svg="http://www.w3.org/2000/svg" xmlns:xlink="http://www.w3.org/1999/xlink" id="svg2" width="430.543" height="325.295" x="0" y="0" enable-background="new 0 0 430.543 325.295" version="1.1" viewBox="0 0 430.543 325.295" xml:space="preserve"><g id="layer1" transform="translate(-53.643411,-569.625)"><path id="path3910" fill="#D7D7F4" d="M268.925,570.139 L54.144,698.264l9.313,5.563l205.469-122.594l9.281-5.563L268.925,570.139z"/><path id="path3918" fill="#F2F2F2" d="M54.145,698.276v68l9.312,5.555v-68L54.145,698.276z"/><path id="path5998" fill="none" d="M54.21,764.597l9.312,5.556L63.49,759.09l-9.25-5.531 L54.21,764.597z"/><path id="path6000" fill="none" d="M54.179,753.534l9.312,5.556l-0.031-11.063l-9.25-5.531 L54.179,753.534z"/><path id="path6002" fill="none" d="M54.209,742.496l9.311,5.556l-0.031-11.063l-9.25-5.531 L54.209,742.496z"/><path id="path6004" fill="none" d="M54.239,731.458l9.311,5.557l-0.031-11.063l-9.25-5.531 L54.239,731.458z"/><path id="path6006" fill="none" d="M54.207,720.396l9.312,5.556l-0.031-11.063l-9.25-5.531 L54.207,720.396z"/><path id="path6008" fill="none" d="M54.176,709.333l9.312,5.556l-0.031-11.063l-9.25-5.531 L54.176,709.333z"/><path id="path6042" fill="#F2F2F2" d="M185.214,632.973 l-0.089,55.214l9.312,5.556l0.031-55.25L185.214,632.973z"/><path id="path6059" fill="#F2F2F2" d="M185.125,688.188l9.312,5.556l-37.155,22.163l-9.25-5.594 L185.125,688.188z"/><path id="path6053" fill="#B3B3B3" d="M278.206,575.67 L63.469,703.844v68l93.812-55.969l0.03-55.194l37.156-22.188l-0.03,55.163l83.769-49.986V575.67z"/></g></svg>