<svg xmlns="http://www.w3.org/2000/svg" xmlns:svg="http://www.w3.org/2000/svg" xmlns:xlink="http://www.w3.org/1999/xlink" id="svg2" width="430.544" height="325.295" version="1.1"><defs id="defs4"><linearGradient id="linearGradient5595"><stop style="stop-color:#000;stop-opacity:1" id="stop5597" offset="0"/><stop style="stop-color:#d8d8d8;stop-opacity:1" id="stop5599" offset="1"/></linearGradient><linearGradient id="linearGradient5603" x1="85.175" x2="221.139" y1="731.299" y2="653.736" gradientUnits="userSpaceOnUse" xlink:href="#linearGradient5595"/></defs><metadata id="metadata7"/><g id="layer1" transform="translate(-53.643411,-569.625)"><path id="path3910" d="m 268.92493,570.13899 -214.781253,128.125 9.3125,5.5625 205.468753,-122.59375 9.2813,-5.5625 z" style="fill:#000;fill-opacity:.89570552;stroke:none;stroke-width:1px;stroke-linecap:round;stroke-linejoin:round;stroke-opacity:1"/><path id="path3918" d="m 54.145499,698.27585 0,68 9.311245,5.55583 0,-68 z" style="fill:#f2f2f2;stroke:#000;stroke-width:.2;stroke-linecap:round;stroke-linejoin:round;stroke-opacity:1;stroke-miterlimit:4;stroke-dasharray:none"/><path style="fill:none;stroke:#000;stroke-width:.2;stroke-linecap:butt;stroke-linejoin:miter;stroke-opacity:1;stroke-miterlimit:4;stroke-dasharray:none" id="path5998" d="m 54.209882,764.5965 9.311245,5.55583 -0.03124,-11.0625 -9.25,-5.53125 z"/><path id="path6000" d="m 54.178642,753.534 9.311245,5.55583 -0.03124,-11.0625 -9.25,-5.53125 z" style="fill:none;stroke:#000;stroke-width:.2;stroke-linecap:butt;stroke-linejoin:miter;stroke-opacity:1;stroke-miterlimit:4;stroke-dasharray:none"/><path style="fill:none;stroke:#000;stroke-width:.2;stroke-linecap:butt;stroke-linejoin:miter;stroke-opacity:1;stroke-miterlimit:4;stroke-dasharray:none" id="path6002" d="m 54.208647,742.49608 9.311245,5.55583 -0.03124,-11.0625 -9.25,-5.53125 z"/><path id="path6004" d="m 54.238652,731.45816 9.311245,5.55583 -0.03124,-11.0625 -9.25,-5.53125 z" style="fill:none;stroke:#000;stroke-width:.2;stroke-linecap:butt;stroke-linejoin:miter;stroke-opacity:1;stroke-miterlimit:4;stroke-dasharray:none"/><path style="fill:none;stroke:#000;stroke-width:.2;stroke-linecap:butt;stroke-linejoin:miter;stroke-opacity:1;stroke-miterlimit:4;stroke-dasharray:none" id="path6006" d="m 54.207412,720.39566 9.311245,5.55583 -0.03124,-11.0625 -9.25,-5.53125 z"/><path id="path6008" d="m 54.176172,709.33316 9.311245,5.55583 -0.03124,-11.0625 -9.25,-5.53125 z" style="fill:none;stroke:#000;stroke-width:.2;stroke-linecap:butt;stroke-linejoin:miter;stroke-opacity:1;stroke-miterlimit:4;stroke-dasharray:none"/><path id="path6042" d="m 185.21405,632.97332 -0.089,55.21418 9.31125,5.55583 0.0312,-55.25 z" style="fill:#f2f2f2;stroke:#000;stroke-width:.2;stroke-linecap:round;stroke-linejoin:round;stroke-opacity:1;stroke-miterlimit:4;stroke-dasharray:none"/><path style="fill:#f2f2f2;fill-opacity:1;stroke:#000;stroke-width:.2;stroke-linecap:butt;stroke-linejoin:miter;stroke-opacity:1;stroke-miterlimit:4;stroke-dasharray:none" id="path6059" d="m 185.125,688.1875 9.31125,5.55583 -37.155,22.16292 -9.25,-5.59375 z"/><path id="path6053" d="m 278.20623,575.67024 -214.737477,128.17351 0,68 93.812497,-55.96875 0.03,-55.19417 37.15625,-22.1875 -0.03,55.16292 83.76873,-49.98601 z" style="fill:url(#linearGradient5603);stroke:#000;stroke-width:.2;stroke-linecap:round;stroke-linejoin:round;stroke-opacity:1;fill-opacity:1;stroke-miterlimit:4;stroke-dasharray:none"/><path style="opacity:1;fill:#fff;fill-opacity:1;fill-rule:nonzero;stroke:#000;stroke-width:1.5;stroke-linecap:round;stroke-linejoin:miter;stroke-miterlimit:4;stroke-dasharray:none;stroke-opacity:1" id="path4" d="m 89.264882,712.04557 c -2.21,1.20129 -4,3.96429 -4,6.17429 0,0.89 0.29,1.55236 0.78,1.95601 -1.95,2.17997 -3.28,4.99292 -3.28,7.40292 0,2.03 0.94,3.32904 2.41,3.71999 -3,2.69071 -7.41,9.57786 -7.41,17.49786 L 100.76488,736.2945 c 0,-7.92 -4.409998,-10.01286 -7.409998,-9.44214 1.47,-1.98905 2.41,-4.31001 2.41,-6.34001 0,-2.41 -1.33,-3.77705 -3.28,-3.83708 0.49,-0.93635 0.78,-1.91399 0.78,-2.80399 0,-2.21 -1.79,-3.027 -4,-1.82571 z"/><g style="opacity:1;fill:none;fill-opacity:1;fill-rule:evenodd;stroke:#000;stroke-width:1.51196861;stroke-linecap:round;stroke-linejoin:round;stroke-miterlimit:4;stroke-dasharray:none;stroke-opacity:1" id="g4231" transform="matrix(0.98423078,-0.56132253,0,1,101.69997,697.38669)"><path style="fill:#fff;stroke:#000;stroke-width:1.51196861" id="path4233" d="m 22,10 c 10.5,1 16.5,8 16,29 l -23,0 c 0,-9 10,-6.5 8,-21"/><path style="fill:#fff;stroke:#000;stroke-width:1.51196861" id="path4235" d="m 24,18 c 0.38,2.91 -5.55,7.37 -8,9 -3,2 -2.82,4.34 -5,4 -1.042,-0.94 1.41,-3.04 0,-3 -1,0 0.19,1.23 -1,2 -1,0 -4.003,1 -4,-4 0,-2 6,-12 6,-12 0,0 1.89,-1.9 2,-3.5 -0.73,-0.994 -0.5,-2 -0.5,-3 1,-1 3,2.5 3,2.5 l 2,0 c 0,0 0.78,-1.992 2.5,-3 1,0 1,3 1,3"/><path style="fill:#000;stroke:#000;stroke-width:1.51196861" id="path4237" d="m 9.5,25.5 a 0.5,0.5 0 1 1 -1,0 0.5,0.5 0 1 1 1,0 z"/><path style="fill:#000;stroke:#000;stroke-width:1.51196861" id="path4239" d="m 15,15.5 a 0.5,1.5 0 1 1 -1,0 0.5,1.5 0 1 1 1,0 z" transform="matrix(0.866,0.5,-0.5,0.866,9.693,-5.173)"/></g><g style="opacity:1;fill:none;fill-opacity:1;fill-rule:evenodd;stroke:#000;stroke-width:1.5;stroke-linecap:round;stroke-linejoin:round;stroke-miterlimit:4;stroke-dasharray:none;stroke-opacity:1" id="g4368" transform="matrix(1,-0.54229492,0,1,229.11361,622.22904)"><path style="fill:#000;stroke:#000" id="path4370" d="m 22,10 c 10.5,1 16.5,8 16,29 l -23,0 c 0,-9 10,-6.5 8,-21"/><path style="fill:#000;stroke:#000" id="path4372" d="m 24,18 c 0.38,2.91 -5.55,7.37 -8,9 -3,2 -2.82,4.34 -5,4 -1.042,-0.94 1.41,-3.04 0,-3 -1,0 0.19,1.23 -1,2 -1,0 -4.003,1 -4,-4 0,-2 6,-12 6,-12 0,0 1.89,-1.9 2,-3.5 -0.73,-0.994 -0.5,-2 -0.5,-3 1,-1 3,2.5 3,2.5 l 2,0 c 0,0 0.78,-1.992 2.5,-3 1,0 1,3 1,3"/><path style="fill:#fff;stroke:#fff" id="path4374" d="m 9.5,25.5 a 0.5,0.5 0 1 1 -1,0 0.5,0.5 0 1 1 1,0 z"/><path style="fill:#fff;stroke:#fff" id="path4376" d="m 15,15.5 a 0.5,1.5 0 1 1 -1,0 0.5,1.5 0 1 1 1,0 z" transform="matrix(0.866,0.5,-0.5,0.866,9.693,-5.173)"/><path style="fill:#fff;stroke:none" id="path4378" d="M 24.55,10.4 24.1,11.85 24.6,12 c 3.15,1 5.65,2.49 7.9,6.75 2.25,4.26 3.25,10.31 2.75,20.25 l -0.05,0.5 2.25,0 L 37.5,39 C 38,28.94 36.62,22.15 34.25,17.66 31.88,13.17 28.46,11.02 25.06,10.5 l -0.51,-0.1 z"/></g><path style="opacity:1;fill:#000;fill-opacity:1;fill-rule:nonzero;stroke:#000;stroke-width:1.5;stroke-linecap:round;stroke-linejoin:miter;stroke-miterlimit:4;stroke-dasharray:none;stroke-opacity:1" id="path5024" d="m 217.04918,639.09812 c -2.21,1.29241 -4,4.12921 -4,6.33921 0,0.89 0.29,1.54041 0.78,1.92385 -1.95,2.26037 -3.28,5.12816 -3.28,7.53816 0,2.03 0.94,3.29028 2.41,3.62062 -3,2.81441 -7.41,9.88339 -7.41,17.80339 l 23,-13.45046 c 0,-7.92 -4.41,-9.83102 -7.41,-9.13661 1.47,-2.04966 2.41,-4.40938 2.41,-6.43938 0,-2.41 -1.33,-3.72221 -3.28,-3.70184 0.49,-0.95656 0.78,-1.94615 0.78,-2.83615 0,-2.21 -1.79,-2.9532 -4,-1.66079 z"/></g></svg>