<svg xmlns="http://www.w3.org/2000/svg" xmlns:xlink="http://www.w3.org/1999/xlink" style="isolation:isolate" width="430.544" height="325.295" viewBox="0 0 430.544 325.295"><defs><clipPath id="_clipPath_xf2WQWBfUCO2OZWrK2PGpMpCaaGob5V1"><rect width="430.544" height="325.295"/></clipPath></defs><g clip-path="url(#_clipPath_xf2WQWBfUCO2OZWrK2PGpMpCaaGob5V1)"><g id="top"><path fill="#230047" stroke="#352E98" stroke-linecap="round" stroke-linejoin="round" stroke-miterlimit="4" stroke-width="1" d="M 214.781 0 L 0 128.125 L 9.313 133.688 L 214.781 11.094 L 224.063 5.531 L 214.781 0 Z" vector-effect="non-scaling-stroke"/><path fill="#2D1A49" stroke="#342D97" stroke-linecap="round" stroke-linejoin="round" stroke-miterlimit="4" stroke-opacity=".992" stroke-width="1" d="M 0.002 128.137 L 0.002 196.137 L 9.313 201.693 L 9.313 133.693 L 0.002 128.137 Z" vector-effect="non-scaling-stroke"/><path fill="#2D1A49" stroke="#342D97" stroke-linecap="round" stroke-linejoin="round" stroke-miterlimit="4" stroke-opacity=".992" stroke-width="1" d="M 131.07 62.834 L 130.981 118.049 L 140.293 123.604 L 140.324 68.354 L 131.07 62.834 Z" vector-effect="non-scaling-stroke"/><path fill="#2D1A49" stroke="#342D97" stroke-linecap="round" stroke-linejoin="round" stroke-miterlimit="4" stroke-opacity=".992" stroke-width="1" d="M 130.981 118.049 L 140.293 123.604 L 103.138 145.767 L 93.888 140.174 L 130.981 118.049 Z" vector-effect="non-scaling-stroke"/><linearGradient id="_lgradient_0" x1="48.745%" x2="64.468%" y1="31.603%" y2="60.288%"><stop offset="58.696%" stop-opacity="1" style="stop-color:#380062"/><stop offset="100%" stop-opacity="1" style="stop-color:#1a237e"/></linearGradient><path fill="url(#_lgradient_0)" d="M 224.063 5.531 L 9.325 133.705 L 9.325 201.705 L 103.138 145.736 L 103.168 90.542 L 140.324 68.354 L 140.294 123.517 L 224.063 73.531 L 224.063 5.531 Z"/><radialGradient id="_rgradient_0" cx="50%" cy="50%" r="50%" fx="51.995%" fy="63.64%" gradientTransform="matrix(0.8709578684351933 -0.4789820765228264 0.06567950683934749 0.3901498720261906 0.031681312362729655 0.544416102248318)"><stop offset="0%" stop-opacity="1" style="stop-color:#7c3bae"/><stop offset="100%" stop-opacity="0" style="stop-color:#000"/></radialGradient><path fill="url(#_rgradient_0)" d="M 224.063 5.531 L 9.325 133.705 L 9.325 201.705 L 103.138 145.736 L 103.168 90.542 L 140.324 68.354 L 140.294 123.517 L 224.063 73.531 L 224.063 5.531 Z"/><g style="isolation:isolate"><path fill="none" stroke="#342D97" stroke-linecap="round" stroke-linejoin="round" stroke-miterlimit="4" stroke-opacity=".992" stroke-width="1" d="M 224.063 5.531 L 9.325 133.705 L 9.325 201.705 L 103.138 145.736 L 103.168 90.542 L 140.324 68.354 L 140.294 123.517 L 224.063 73.531 L 224.063 5.531 Z" vector-effect="non-scaling-stroke"/></g></g></g></svg>