<svg xmlns="http://www.w3.org/2000/svg" xmlns:svg="http://www.w3.org/2000/svg" xmlns:xlink="http://www.w3.org/1999/xlink" id="svg2" width="430.543" height="325.295" x="0" y="0" enable-background="new 0 0 430.543 325.295" version="1.1" viewBox="0 0 430.543 325.295" xml:space="preserve"><path id="path3910" fill="#D7D7F4" d="M215.282,0.514L0.5,128.639	l9.313,5.563L215.283,11.608l9.281-5.563L215.282,0.514z"/><path id="path3918" fill="#F2F2F2" d="M0.501,128.651v68l9.312,5.555v-68L0.501,128.651z"/><path id="path5998" fill="none" d="M0.566,194.972l9.312,5.557l-0.032-11.063l-9.25-5.53	L0.566,194.972z"/><path id="path6000" fill="none" d="M0.536,183.909l9.312,5.556l-0.031-11.063l-9.25-5.53	L0.536,183.909z"/><path id="path6002" fill="none" d="M0.565,172.871l9.311,5.556l-0.031-11.063l-9.25-5.531	L0.565,172.871z"/><path id="path6004" fill="none" d="M0.596,161.833l9.311,5.557l-0.031-11.063l-9.25-5.531	L0.596,161.833z"/><path id="path6006" fill="none" d="M0.563,150.771l9.312,5.556l-0.031-11.063l-9.25-5.531	L0.563,150.771z"/><path id="path6008" fill="none" d="M0.533,139.708l9.312,5.556l-0.031-11.063l-9.25-5.531	L0.533,139.708z"/><path id="path6042" fill="#958179" d="M131.571,63.348l-0.089,55.214	l9.312,5.556l0.031-55.25L131.571,63.348z"/><path id="path6059" fill="#958179" d="M131.481,118.563l9.312,5.556l-37.155,22.163l-9.25-5.594	L131.481,118.563z"/><path id="path6053" fill="#B39B91" d="M224.563,6.045	L9.826,134.219v68l93.812-55.969l0.03-55.194l37.156-22.188l-0.03,55.163l83.769-49.986V6.045z"/></svg>