<svg xmlns="http://www.w3.org/2000/svg" xmlns:svg="http://www.w3.org/2000/svg" xmlns:xlink="http://www.w3.org/1999/xlink" id="svg2" width="430.543" height="325.295" x="0" y="0" enable-background="new 0 0 430.543 325.295" version="1.1" viewBox="0 0 430.543 325.295" xml:space="preserve"><metadata id="metadata19"/><defs id="defs3"><linearGradient id="linearGradient3411"><stop style="stop-color:#00002c;stop-opacity:1" id="stop3407" offset="0"/><stop style="stop-color:#00002c;stop-opacity:0" id="stop3409" offset="1"/></linearGradient><linearGradient id="linearGradient3413" x1="103.426" x2="140.916" y1="107.627" y2="107.627" gradientTransform="translate(53.69654,569.65668)" gradientUnits="userSpaceOnUse" xlink:href="#linearGradient3411"/><linearGradient id="linearGradient3415" x1="-.115" x2="9.975" y1="165.501" y2="165.501" gradientTransform="translate(53.746967,569.63832)" gradientUnits="userSpaceOnUse" xlink:href="#linearGradient3411"/><linearGradient id="linearGradient3417" x1=".54" x2="224.978" y1="67.219" y2="67.219" gradientTransform="translate(53.571993,569.56724)" gradientUnits="userSpaceOnUse" xlink:href="#linearGradient3411"/></defs><g id="layer1" transform="translate(-53.643411,-569.625)"><path id="path3910" fill="#D7D7F4" d="M268.925,570.139 L54.144,698.264l9.313,5.563l205.469-122.594l9.281-5.563L268.925,570.139z" style="fill:#0065ff;fill-opacity:1"/><path id="path3918" fill="#F2F2F2" d="M54.145,698.276v68l9.312,5.555v-68L54.145,698.276z"/><path id="path5998" fill="none" d="M54.21,764.597l9.312,5.556L63.49,759.09l-9.25-5.531 L54.21,764.597z"/><path id="path6000" fill="none" d="M54.179,753.534l9.312,5.556l-0.031-11.063l-9.25-5.531 L54.179,753.534z"/><path id="path6002" fill="none" d="M54.209,742.496l9.311,5.556l-0.031-11.063l-9.25-5.531 L54.209,742.496z"/><path id="path6004" fill="none" d="M54.239,731.458l9.311,5.557l-0.031-11.063l-9.25-5.531 L54.239,731.458z"/><path id="path6006" fill="none" d="M54.207,720.396l9.312,5.556l-0.031-11.063l-9.25-5.531 L54.207,720.396z"/><path id="path6008" fill="none" d="M54.176,709.333l9.312,5.556l-0.031-11.063l-9.25-5.531 L54.176,709.333z"/><path id="path6042" fill="#F2F2F2" d="M185.214,632.973 l-0.089,55.214l9.312,5.556l0.031-55.25L185.214,632.973z" style="fill:#1212f2;fill-opacity:1"/><path id="path6059" fill="#F2F2F2" d="M185.125,688.188l9.312,5.556l-37.155,22.163l-9.25-5.594 L185.125,688.188z" style="fill:#0910f2;fill-opacity:1"/><path id="path6053" fill="#B3B3B3" d="M278.206,575.67 L63.469,703.844v68l93.812-55.969l0.03-55.194l37.156-22.188l-0.03,55.163l83.769-49.986V575.67z" style="fill:#174db3;fill-opacity:1"/><path style="fill:#000;stroke:#000;stroke-width:.50507629" id="path21" d="M 64.09446,737.59776 V 703.8633 l 106.60652,-63.63196 c 58.63359,-34.99757 106.81787,-63.70771 107.07617,-63.80031 0.28663,-0.10275 0.46055,12.98646 0.44628,33.58757 l -0.0234,33.75593 -41.14555,24.4962 c -22.63005,13.47291 -41.3705,24.57196 -41.64543,24.66456 -0.3257,0.1097 -0.49987,-9.36415 -0.49987,-27.18994 0,-15.04706 -0.18991,-27.28254 -0.42202,-27.18994 -0.23211,0.0926 -8.63546,5.05497 -18.67411,11.0275 l -18.2521,10.85914 -0.13998,27.71648 -0.13997,27.71647 -45.20433,26.98574 c -24.862384,14.84215 -45.829362,27.32003 -46.59329,27.72861 l -1.38896,0.74288 z"/><path style="fill:url(#linearGradient3413);fill-opacity:1;stroke:#000;stroke-width:.50507629" id="path23" d="m 157.37486,710.22481 v -5.48885 l 13.87507,-8.27448 13.87507,-8.27448 0.0272,-21.97082 0.0272,-21.97081 4.40677,-2.60167 4.40677,-2.60166 0.25254,27.3504 c 0.22091,23.92533 0.15766,27.41982 -0.50507,27.90478 -1.26734,0.92736 -35.79458,21.41643 -36.09,21.41643 -0.15152,0 -0.2755,-2.46998 -0.2755,-5.48884 z"/><path style="fill:url(#linearGradient3417);fill-opacity:1;stroke:#000;stroke-width:.50507629" id="path25" d="m 58.65791,700.84277 c -2.417626,-1.43384 -4.349542,-2.64723 -4.293148,-2.69642 0.05639,-0.0492 48.355518,-28.87097 107.331388,-64.04839 L 268.925,570.139 l 4.56622,2.73744 4.56622,2.73743 -11.03236,6.55825 c -6.06779,3.60703 -54.29863,32.38195 -107.17964,63.94425 -52.88102,31.56231 -96.292316,57.37417 -96.469569,57.35969 -0.177253,-0.0145 -2.300335,-1.19946 -4.717961,-2.63329 z"/><path style="fill:url(#linearGradient3415);fill-opacity:1;stroke:#000;stroke-width:.50507629" id="path27" d="M 58.556611,768.95145 53.884656,766.148 v -33.81265 c 0,-18.59696 0.130182,-33.81265 0.289293,-33.81265 0.159112,0 2.312889,1.19324 4.786173,2.65165 l 4.496878,2.65165 0.01205,33.96638 c 0.0066,18.68151 -0.04477,33.96551 -0.114216,33.96445 -0.06945,-0.001 -2.22865,-1.26348 -4.798225,-2.80538 z"/></g></svg>