<svg xmlns="http://www.w3.org/2000/svg" xmlns:svg="http://www.w3.org/2000/svg" id="svg3705" width="50" height="60" version="1.1" viewBox="0 0 13.229 15.875"><metadata id="metadata3702"/><g id="layer6"><ellipse style="fill:#a40;fill-opacity:1;stroke-width:.38624769" id="path5012" cx="5.491" cy="12.321" rx=".558" ry="3.305"/><ellipse style="fill:#a40;fill-opacity:1;stroke-width:.38624769" id="path5012-0" cx="7.947" cy="12.359" rx=".558" ry="3.305"/><path style="fill:#a40;fill-opacity:1;stroke-width:.2242815" id="rect5033" d="M 4.643208,15.251011 C 5.1247646,14.87957 5.4905281,15.122543 5.4905281,15.122543 v 0.502829 H 4.459682 c 0,0 0.05081,-0.271992 0.183526,-0.374361 z"/><path style="fill:#a40;fill-opacity:1;stroke-width:.20911898" id="rect5033-5" d="M 8.6833788,15.289586 C 8.2647325,14.918145 7.9467521,15.161118 7.9467521,15.161118 v 0.502829 h 0.896177 c 0,0 -0.044172,-0.271992 -0.1595503,-0.374361 z"/><ellipse style="fill:#a40;fill-opacity:1;stroke-width:.36799532" id="path5053" cx="-6.712" cy="7.318" rx="2.862" ry=".469" transform="matrix(0.46195455,-0.8869036,0.93285108,0.3602622,0,0)"/><ellipse style="fill:#a40;fill-opacity:1;stroke-width:.3309868" id="path5053-7" cx="-12.343" cy="-4.09" rx="2.744" ry=".396" transform="matrix(-0.49080187,-0.87127121,-0.84986691,0.52699737,0,0)"/></g><g id="layer5"><ellipse style="fill:#f60;fill-opacity:1;stroke-width:.44698012" id="path4973" cx="6.565" cy="8.245" rx="2.638" ry="2.983"/></g><g id="layer2"><ellipse style="fill:#f60;fill-opacity:1;stroke-width:.36345354" id="path4908" cx="6.514" cy="2.073" rx=".714" ry=".728"/><rect style="fill:#f60;fill-opacity:1;stroke-width:.38671851" id="rect4950" width=".223" height="2.194" x="6.443" y="-3.35" ry="0" transform="matrix(0.88876462,0.45836388,-0.51921419,0.85464415,0,0)"/></g><g id="layer1" transform="translate(0,-281.12501)" style="display:inline"><path style="fill:#f60;fill-opacity:1;stroke-width:.56139678" id="path4075" d="m 6.1523438,282.97656 c -1.197918,0 -2.1699218,0.92794 -2.1699219,2.07422 1e-7,1.14628 0.9348946,1.27149 2.1328125,1.27149 1.1979179,0 2.205078,-0.12521 2.2050781,-1.27149 -10e-8,-1.14628 -0.9700508,-2.07422 -2.1679687,-2.07422 z" transform="matrix(1.5208551,0,0,1.401261,-2.8318767,-113.33123)"/><path style="display:inline;fill:#a40;fill-opacity:1;stroke-width:.56139678" id="path4075-2" d="m 6.1523438,282.97656 c -1.197918,0 -2.1699218,0.92794 -2.1699219,2.07422 1e-7,1.14628 0.9348946,1.27149 2.1328125,1.27149 1.1979179,0 2.205078,-0.12521 2.2050781,-1.27149 -10e-8,-1.14628 -0.9700508,-2.07422 -2.1679687,-2.07422 z" transform="matrix(1.2192956,0,0,1.1819831,-0.98776931,-50.547106)"/></g><g id="layer4"><ellipse style="fill:#fff;fill-opacity:1;stroke-width:.12619475" id="path4956" cx="5.25" cy="4.6" rx=".67" ry=".54"/><ellipse style="fill:#fff;fill-opacity:1;stroke-width:.12619475" id="path4956-2" cx="7.751" cy="4.644" rx=".67" ry=".54"/><ellipse style="fill:#9b0000;fill-opacity:1;stroke-width:.07350641" id="path4956-0" cx="5.522" cy="4.6" rx=".398" ry=".309"/><ellipse style="fill:#9b0000;fill-opacity:1;stroke-width:.07350641" id="path4956-0-5" cx="7.479" cy="4.644" rx=".398" ry=".309"/></g></svg>