<svg xmlns="http://www.w3.org/2000/svg" xmlns:svg="http://www.w3.org/2000/svg" xmlns:xlink="http://www.w3.org/1999/xlink" id="svg8" width="55" height="60" preserveAspectRatio="xMidYMid meet" version="1.1" viewBox="0 0 55 60"><metadata id="metadata7"/><defs id="defs5"><linearGradient id="linearGradient4098-04-9-8"><stop style="stop-color:#ffb142" id="stop4100-8-2-2" offset="0"/><stop style="stop-color:#c87600" id="stop4104-4-7-3" offset="1"/></linearGradient><linearGradient id="linearGradient6115"><stop style="stop-color:#08a" id="stop6117" offset="0"/><stop style="stop-color:#00b0ea" id="stop6119" offset="1"/></linearGradient><linearGradient id="linearGradient6087"><stop style="stop-color:#aaa" id="stop6089" offset="0"/><stop style="stop-color:#e5e5e5" id="stop6095" offset=".5"/><stop style="stop-color:#fff" id="stop6091" offset="1"/></linearGradient><radialGradient id="radialGradient3598" cx="421.76" cy="231.91" r="8.758" gradientTransform="matrix(1,0,0,0.59942,-214.03,129.3)" gradientUnits="userSpaceOnUse" xlink:href="#linearGradient6115"/><radialGradient id="radialGradient3636" cx="421.76" cy="231.91" r="8.758" gradientTransform="matrix(1,0,0,0.59942,-214.03,129.3)" gradientUnits="userSpaceOnUse" xlink:href="#linearGradient6115"/><radialGradient id="radialGradient3674" cx="421.76" cy="231.91" r="8.758" gradientTransform="matrix(1,0,0,0.59942,-214.03,129.3)" gradientUnits="userSpaceOnUse" xlink:href="#linearGradient6115"/><radialGradient id="radialGradient3712" cx="421.76" cy="231.91" r="8.758" gradientTransform="matrix(1,0,0,0.59942,-214.03,129.3)" gradientUnits="userSpaceOnUse" xlink:href="#linearGradient6115"/><radialGradient id="radialGradient3750" cx="421.76" cy="231.91" r="8.758" gradientTransform="matrix(1,0,0,0.59942,-214.03,129.3)" gradientUnits="userSpaceOnUse" xlink:href="#linearGradient6115"/><radialGradient id="radialGradient3788" cx="421.76" cy="231.91" r="8.758" gradientTransform="matrix(1,0,0,0.59942,-214.03,129.3)" gradientUnits="userSpaceOnUse" xlink:href="#linearGradient6115"/><radialGradient id="radialGradient3826" cx="421.76" cy="231.91" r="8.758" gradientTransform="matrix(1,0,0,0.59942,-214.03,129.3)" gradientUnits="userSpaceOnUse" xlink:href="#linearGradient6115"/><radialGradient id="radialGradient3864" cx="421.76" cy="231.91" r="8.758" gradientTransform="matrix(1,0,0,0.59942,-214.03,129.3)" gradientUnits="userSpaceOnUse" xlink:href="#linearGradient6115"/><radialGradient id="radialGradient3902" cx="421.76" cy="231.91" r="8.758" gradientTransform="matrix(1,0,0,0.59942,-214.03,129.3)" gradientUnits="userSpaceOnUse" xlink:href="#linearGradient6115"/><clipPath id="clipPath6066" clipPathUnits="userSpaceOnUse"><path style="fill:#000" id="path6068" d="m 455.32,523.53 c 32.02,120.93 156.37,224.33 295.48,173.4 92.8,-33.98 162.28,-103.57 175.55,-192.22 -44,35.08 -96.1,62.14 -154.4,77.87 -108.35,29.23 -226.93,-10.9 -316.63,-59.05 z"/></clipPath><linearGradient id="linearGradient3837"><stop style="stop-color:#faa" id="stop3839" offset="0"/><stop style="stop-color:#cc6588" id="stop3841" offset="1"/></linearGradient><linearGradient id="linearGradient2991"><stop style="stop-color:#fff" id="stop2993" offset="0"/><stop style="stop-color:#e5e5e5" id="stop2995" offset="1"/></linearGradient><linearGradient id="linearGradient5635"><stop style="stop-color:#803300" id="stop5637" offset="0"/><stop style="stop-color:#941d00" id="stop5639" offset="1"/></linearGradient><radialGradient id="radialGradient4129" cx="113.19" cy="216.99" r="2.806" gradientUnits="userSpaceOnUse" xlink:href="#linearGradient5635"/><radialGradient id="radialGradient4137" cx="113.19" cy="216.99" r="2.806" gradientUnits="userSpaceOnUse" xlink:href="#linearGradient5635"/><radialGradient id="radialGradient4145" cx="113.19" cy="216.99" r="2.806" gradientUnits="userSpaceOnUse" xlink:href="#linearGradient5635"/><radialGradient id="radialGradient4153" cx="113.19" cy="216.99" r="2.806" gradientUnits="userSpaceOnUse" xlink:href="#linearGradient5635"/><linearGradient id="linearGradient3865"><stop style="stop-color:#1abd1a" id="stop3867" offset="0"/><stop style="stop-color:#1a621a" id="stop3869" offset="1"/></linearGradient><linearGradient id="linearGradient3799"><stop style="stop-color:#d47900" id="stop3801" offset="0"/><stop style="stop-color:#d50000" id="stop3803" offset="1"/></linearGradient><radialGradient id="radialGradient4208" cx="547.25" cy="168.45" r="76.567" gradientTransform="matrix(1,0,0,0.64902,0,59.122)" gradientUnits="userSpaceOnUse" xlink:href="#linearGradient3799"/><radialGradient id="radialGradient4223" cx="547.25" cy="168.45" r="76.567" gradientTransform="matrix(1,0,0,0.64902,0,59.122)" gradientUnits="userSpaceOnUse" xlink:href="#linearGradient3799"/><radialGradient id="radialGradient4231" cx="547.25" cy="168.45" r="76.567" gradientTransform="matrix(1,0,0,0.64902,0,59.122)" gradientUnits="userSpaceOnUse" xlink:href="#linearGradient3799"/><radialGradient id="radialGradient4239" cx="200.06" cy="202.13" r="4.968" gradientUnits="userSpaceOnUse" xlink:href="#linearGradient3865"/><radialGradient id="radialGradient3598-1" cx="421.76" cy="231.91" r="8.758" gradientTransform="matrix(1,0,0,0.59942,-214.03,129.3)" gradientUnits="userSpaceOnUse" xlink:href="#linearGradient6115"/><linearGradient id="linearGradient3606" x1="419.61" x2="421.4" y1="232" y2="232.25" gradientUnits="userSpaceOnUse" spreadMethod="reflect" xlink:href="#linearGradient6087"/><linearGradient id="linearGradient3616" x1="425.29" x2="428.92" y1="232.4" y2="232.4" gradientUnits="userSpaceOnUse" spreadMethod="reflect" xlink:href="#linearGradient6087"/><linearGradient id="linearGradient3626" x1="415.45" x2="428.05" y1="232.77" y2="232.77" gradientTransform="matrix(1.0837,0,0,1,-34.798,0)" gradientUnits="userSpaceOnUse" spreadMethod="reflect" xlink:href="#linearGradient6087"/><radialGradient id="radialGradient3636-8" cx="421.76" cy="231.91" r="8.758" gradientTransform="matrix(1,0,0,0.59942,-214.03,129.3)" gradientUnits="userSpaceOnUse" xlink:href="#linearGradient6115"/><radialGradient id="radialGradient3674-5" cx="421.76" cy="231.91" r="8.758" gradientTransform="matrix(1,0,0,0.59942,-214.03,129.3)" gradientUnits="userSpaceOnUse" xlink:href="#linearGradient6115"/><radialGradient id="radialGradient3712-3" cx="421.76" cy="231.91" r="8.758" gradientTransform="matrix(1,0,0,0.59942,-214.03,129.3)" gradientUnits="userSpaceOnUse" xlink:href="#linearGradient6115"/><radialGradient id="radialGradient3750-9" cx="421.76" cy="231.91" r="8.758" gradientTransform="matrix(1,0,0,0.59942,-214.03,129.3)" gradientUnits="userSpaceOnUse" xlink:href="#linearGradient6115"/><radialGradient id="radialGradient3788-9" cx="421.76" cy="231.91" r="8.758" gradientTransform="matrix(1,0,0,0.59942,-214.03,129.3)" gradientUnits="userSpaceOnUse" xlink:href="#linearGradient6115"/><radialGradient id="radialGradient3826-4" cx="421.76" cy="231.91" r="8.758" gradientTransform="matrix(1,0,0,0.59942,-214.03,129.3)" gradientUnits="userSpaceOnUse" xlink:href="#linearGradient6115"/><radialGradient id="radialGradient3864-3" cx="421.76" cy="231.91" r="8.758" gradientTransform="matrix(1,0,0,0.59942,-214.03,129.3)" gradientUnits="userSpaceOnUse" xlink:href="#linearGradient6115"/><radialGradient id="radialGradient3902-5" cx="421.76" cy="231.91" r="8.758" gradientTransform="matrix(1,0,0,0.59942,-214.03,129.3)" gradientUnits="userSpaceOnUse" xlink:href="#linearGradient6115"/><clipPath id="clipPath6066-6" clipPathUnits="userSpaceOnUse"><path style="fill:#000" id="path6068-7" d="m 455.32,523.53 c 32.02,120.93 156.37,224.33 295.48,173.4 92.8,-33.98 162.28,-103.57 175.55,-192.22 -44,35.08 -96.1,62.14 -154.4,77.87 -108.35,29.23 -226.93,-10.9 -316.63,-59.05 z"/></clipPath><radialGradient id="radialGradient4129-1" cx="113.19" cy="216.99" r="2.806" gradientUnits="userSpaceOnUse" xlink:href="#linearGradient5635"/><radialGradient id="radialGradient4137-8" cx="113.19" cy="216.99" r="2.806" gradientUnits="userSpaceOnUse" xlink:href="#linearGradient5635"/><radialGradient id="radialGradient4145-0" cx="113.19" cy="216.99" r="2.806" gradientUnits="userSpaceOnUse" xlink:href="#linearGradient5635"/><radialGradient id="radialGradient4153-3" cx="113.19" cy="216.99" r="2.806" gradientUnits="userSpaceOnUse" xlink:href="#linearGradient5635"/><radialGradient id="radialGradient4208-5" cx="547.25" cy="168.45" r="76.567" gradientTransform="matrix(1,0,0,0.64902,0,59.122)" gradientUnits="userSpaceOnUse" xlink:href="#linearGradient3799"/><radialGradient id="radialGradient4223-2" cx="547.25" cy="168.45" r="76.567" gradientTransform="matrix(1,0,0,0.64902,0,59.122)" gradientUnits="userSpaceOnUse" xlink:href="#linearGradient3799"/><radialGradient id="radialGradient4231-9" cx="547.25" cy="168.45" r="76.567" gradientTransform="matrix(1,0,0,0.64902,0,59.122)" gradientUnits="userSpaceOnUse" xlink:href="#linearGradient3799"/><radialGradient id="radialGradient4239-1" cx="200.06" cy="202.13" r="4.968" gradientUnits="userSpaceOnUse" xlink:href="#linearGradient3865"/></defs><g id="g229" transform="matrix(0.1485318,0,0,0.13965296,-6.3833382,-3.4570039)"><flowRoot style="line-height:.01%;font-family:sans-serif;letter-spacing:0;word-spacing:0;fill:#000" id="flowRoot5478" transform="matrix(0.45240893,0.00973234,-0.00809988,0.54358773,585.35862,62.182657)" xml:space="preserve"><flowRegion style="font-family:sans-serif" id="flowRegion5480"><rect style="font-family:sans-serif" id="rect5482" width="395.98" height="56.569" x="-763.68" y="-87.494"/></flowRegion><flowPara style="font-size:40px;line-height:1.25;font-family:sans-serif" id="flowPara5484"/></flowRoot><path id="path4293-4" d="m 156.44863,341.38538 c -4.88611,-0.20663 -10.38265,-0.62171 -12.21496,-0.9224 -1.83222,-0.30069 -20.53092,-2.60394 -41.5527,-5.11848 -21.021889,-2.51454 -38.369676,-4.63332 -38.550909,-4.70833 -0.525578,-0.21802 5.010083,-38.74761 6.296434,-43.82423 4.985478,-19.67301 13.297522,-29.31348 32.681195,-37.90429 16.68897,-7.39638 32.80754,-10.7295 60.55846,-12.52264 12.11559,-0.78285 86.71792,-1.12212 104.69611,-0.47613 28.58129,1.02697 46.84132,2.82916 64.02848,6.31935 8.67482,1.76159 12.14915,2.81487 20.09955,6.09333 20.70957,8.53976 30.2645,20.37842 34.85661,43.18754 2.56261,12.729 5.4708,38.82556 4.37577,39.26507 -2.01746,0.80973 -38.99492,5.10153 -51.3699,5.96222 -44.93961,3.12558 -154.46436,5.89441 -183.90414,4.64899 z" style="opacity:1;fill:#000;fill-opacity:1;fill-rule:nonzero;stroke:#000;stroke-width:.71497941;stroke-opacity:1"/><path id="path3551-8" d="M 216.56067,64.910229 A 63.180664,90.531387 0 0 1 292.55686,117.92861 63.180664,90.531387 0 0 1 263.7485,231.79264 63.180664,90.531387 0 0 1 181.69654,202.70949 63.180664,90.531387 0 0 1 193.25685,82.731922" style="fill:#b3b3b3;fill-opacity:1"/><path id="path3736" d="m 315.46377,444.5529 c -1.91429,-2.92795 -5.85536,-9.84407 -8.75793,-15.36917 -2.90257,-5.52509 -7.49283,-13.47499 -10.20058,-17.66645 l -4.92318,-7.62082 3.55662,-3.37175 c 6.80152,-6.448 20.22283,-17.23183 29.22818,-23.48441 4.9833,-3.46001 9.12761,-6.32465 9.20957,-6.3659 0.082,-0.0412 -1.34202,-6.92413 -3.1644,-15.29534 -6.98375,-32.08021 -8.66852,-46.1619 -8.68004,-72.54974 l -0.008,-17.83965 h 27.23418 27.23419 l 6.27803,11.95084 c 9.57885,18.23423 17.96703,38.48887 27.47206,66.33579 3.46849,10.16163 3.63444,10.99891 3.0895,15.58804 -1.27054,10.69991 -8.97707,23.29884 -24.14893,39.47962 -16.92687,18.05248 -47.57802,41.23277 -65.34004,49.41418 l -4.59891,2.1183 -3.48053,-5.32354 z" style="fill:#000;fill-opacity:1"/><path id="path3736-1" d="m 140.77977,444.64087 c 1.91429,-2.92795 5.85536,-9.84407 8.75793,-15.36917 2.90257,-5.52509 7.49283,-13.47499 10.20058,-17.66645 l 4.92318,-7.62082 -3.55662,-3.37175 c -6.80152,-6.448 -20.22283,-17.23183 -29.22818,-23.48441 -4.9833,-3.46001 -9.12761,-6.32465 -9.20957,-6.3659 -0.082,-0.0412 1.34202,-6.92413 3.1644,-15.29534 6.98375,-32.08021 8.66852,-46.1619 8.68004,-72.54974 l 0.008,-17.83965 H 107.28535 80.051163 l -6.27803,11.95084 c -9.57885,18.23423 -17.96703,38.48887 -27.47206,66.33579 -3.46849,10.16163 -3.63444,10.99891 -3.0895,15.58804 1.27054,10.69991 8.97707,23.29884 24.14893,39.47962 16.92687,18.05248 47.578017,41.23277 65.340037,49.41418 l 4.59891,2.1183 3.48053,-5.32354 z" style="fill:#000;fill-opacity:1"/><g style="fill:#4d4d4d" id="g3689" transform="matrix(0.73758172,0,0,0.69185272,440.01639,-47.53927)"><path style="fill:#4d4d4d;stroke:#000;stroke-width:6.19932604" id="rect2830-0-7-4-7-4" d="m -449.33902,701.86806 v 7.61173 c 0,7.14876 5.732,12.90704 12.8733,12.90704 l 22.7519,1.9e-4 v -3.63982 h 247.6623 v 3.63982 h 21.5072 c 7.141,0 12.8925,-5.75818 12.8925,-12.90723 V 701.868 h -317.6973 z"/><path style="fill:#4d4d4d;stroke:#000;stroke-width:6.19932604" id="rect2830-2-2-8-5" d="m -453.75825,488.00699 h 321.5978 c 7.86726,0 14.20076,5.6993 14.20076,12.7786 l -10.51798,193.3278 c 0,7.0794 -5.2159,12.779 -13.08285,12.779 H -440.7748 c -7.86726,0 -16.88735,-5.6994 -16.88735,-12.779 l -10.29402,-193.3278 c 0,-7.0793 6.3335,-12.7786 14.20076,-12.7786 z"/></g><path id="path5332-5-6" d="m 212.30728,186.67846 a 0.86758476,1.0010593 0 0 1 1.02634,0.54051 0.86758476,1.0010593 0 0 1 -0.30425,1.25353 0.86758476,1.0010593 0 0 1 -1.12036,-0.15317 0.86758476,1.0010593 0 0 1 -0.0419,-1.30086 l 0.67968,0.62215 z" style="fill:#000;fill-opacity:1;stroke:#000;stroke-opacity:1"/><path id="path5332-5-6-6" d="m 259.87518,223.67572 a 0.86758476,1.0010593 0 0 1 1.02634,0.54052 0.86758476,1.0010593 0 0 1 -0.30425,1.25353 0.86758476,1.0010593 0 0 1 -1.12035,-0.15317 0.86758476,1.0010593 0 0 1 -0.0419,-1.30086 l 0.67968,0.62215 z" style="fill:#000;fill-opacity:1;stroke:#000;stroke-opacity:1"/><g id="g8974" transform="translate(-1.0677921,6.4067786)"><g id="g5201" transform="matrix(3.4154961,0,0,3.3507392,150.82426,94.601201)"><ellipse id="path5197" cx="36" cy="19.188" rx="2.375" ry=".563" transform="translate(-2.875,-0.625)" style="color:#000;fill:#000;fill-rule:evenodd"/><ellipse id="path5199" cx="36" cy="19.188" rx="2.375" ry=".563" transform="translate(-20.25,-0.625)" style="color:#000;fill:#000;fill-rule:evenodd"/></g><g id="g1506" transform="matrix(3.4154961,0,0,3.3507392,152.10507,103.81573)" style="stroke:#414141"><circle id="path1500" cx="11.49" cy="12.468" r="9.546" style="color:#000;fill:none;stroke:#414141;stroke-linecap:round;stroke-linejoin:round"/><circle id="path1502" cx="11.49" cy="12.468" r="9.546" transform="translate(24.572)" style="color:#000;fill:none;stroke:#414141;stroke-linecap:round;stroke-linejoin:round"/><path id="path1504" d="m 21.036428,12.467883 a 9.5459423,9.5459423 0 0 1 -7.821452,9.388884" transform="matrix(-0.40175,-0.47953,0.47953,-0.40175,22.405,22.9)" style="color:#000;fill:none;stroke:#414141;stroke-width:1.59850001;stroke-linecap:round;stroke-linejoin:round"/></g><ellipse id="path4452" cx="275.205" cy="145.562" rx="29.291" ry="28.736" style="color:#000;fill:none;fill-rule:evenodd;stroke:#000;stroke-width:3.38308644;stroke-linecap:round;stroke-miterlimit:10;stroke-opacity:1"/><ellipse id="path5146" cx="191.422" cy="145.562" rx="29.291" ry="28.736" style="color:#000;fill:none;fill-rule:evenodd;stroke:#000;stroke-width:3.38308644;stroke-linecap:round;stroke-miterlimit:10;stroke-opacity:1"/><path style="fill:#000;fill-opacity:1;stroke:#000;stroke-opacity:1" id="path5332" d="m 263.70651,180.49651 a 0.86758476,1.0010593 0 0 1 1.02634,0.54052 0.86758476,1.0010593 0 0 1 -0.30425,1.25353 0.86758476,1.0010593 0 0 1 -1.12035,-0.15317 0.86758476,1.0010593 0 0 1 -0.0419,-1.30087 l 0.67968,0.62216 z"/><path style="fill:#000;fill-opacity:1;stroke:#000;stroke-opacity:1" id="path5332-5" d="m 229.4846,163.27202 a 0.86758476,1.0010593 0 0 1 1.02634,0.54052 0.86758476,1.0010593 0 0 1 -0.30425,1.25353 0.86758476,1.0010593 0 0 1 -1.12035,-0.15317 0.86758476,1.0010593 0 0 1 -0.0419,-1.30086 l 0.67968,0.62215 z"/></g><path id="path5332-5-6-6-9" d="m 258.50226,217.74093 a 0.86758476,1.0010593 0 0 1 1.02634,0.54051 0.86758476,1.0010593 0 0 1 -0.30425,1.25353 0.86758476,1.0010593 0 0 1 -1.12036,-0.15317 0.86758476,1.0010593 0 0 1 -0.0419,-1.30086 l 0.67968,0.62215 z" style="fill:#000;fill-opacity:1;stroke:#000;stroke-opacity:1"/><path id="path5332-5-6-6-9-0" d="m 265.44293,221.41147 a 0.86758476,1.0010593 0 0 1 1.02634,0.54052 0.86758476,1.0010593 0 0 1 -0.30425,1.25353 0.86758476,1.0010593 0 0 1 -1.12035,-0.15317 0.86758476,1.0010593 0 0 1 -0.0419,-1.30086 l 0.67968,0.62215 z" style="fill:#000;fill-opacity:1;stroke:#000;stroke-opacity:1"/><path style="fill:#000;fill-rule:evenodd;stroke:#000;stroke-width:1.46022403px" id="path3862" d="m 236.95735,51.441931 c -3.18712,-0.0089 -26.46441,-20.185928 -29.08734,-20.185928 -18.06363,0 2.00893,12.785093 -9.73984,24.591852 l -14.66446,12.114232 -6.60828,6.823553 -2.49374,3.063704 -2.28692,4.566361 c -5.86944,11.113112 -9.22482,25.466195 -9.22482,43.446095 0,4.15 0.22765,8.05249 0.61366,11.78008 l -0.089,0.23714 5.19639,-22.31851 5.16669,27.75058 8.08096,-38.22383 3.56884,15.71598 6.23567,23.28893 3.92945,-43.08296 3.85029,20.20014 5.69127,-39.576209 8.72993,10.372039 7.3937,19.77773 4.54314,-25.261665 13.28295,22.263285 V 84.713041 l 19.95412,29.503549 -3.87998,-24.818491 10.00846,37.602191 12.15704,-15.56717 10.78883,13.32806 9.72912,-19.02966 C 296.2467,98.218964 278.79577,74.677442 276.88548,70.760135 268.35351,53.241196 250.76498,51.480399 236.95743,51.441874 Z"/><path id="path4021-1" d="m 181.40742,351.55555 v 2.9362 h 2.38432 v -2.9362 z m 3.05732,0 v 2.9362 h 2.3835 v -2.9362 z m 12.22114,0 v 2.9362 h 2.38432 v -2.9362 z m 9.15815,0 v 2.9362 h 2.3835 v -2.9362 z m 3.0565,0 v 2.9362 h 2.38432 v -2.9362 z m 3.05732,0 v 2.9362 h 2.3835 v -2.9362 z m 3.05731,0 v 2.9362 h 2.38351 v -2.9362 z m 3.05001,0 v 2.9362 h 2.39081 v -2.9362 z m 9.17114,0 v 2.9362 h 2.3835 v -2.9362 z m 3.05731,0 v 2.9362 h 2.38351 v -2.9362 z m 3.0565,0 v 2.9362 h 2.38432 v -2.9362 z m 3.05732,0 v 2.9362 h 2.3835 v -2.9362 z m 3.05732,0 v 2.9362 h 2.3835 v -2.9362 z m 12.22763,0 v 2.9362 h 2.38432 v -2.9362 z m 3.05732,0 v 2.9362 h 2.38351 v -2.9362 z m 3.05001,0 v 2.9362 h 2.39081 v -2.9362 z m 3.05732,0 v 2.9362 h 2.3835 v -2.9362 z m -79.44962,3.7656 v 2.9362 h 2.38432 v -2.9362 z m 3.05732,0 v 2.9362 h 2.3835 v -2.9362 z m 3.05731,0 v 2.9362 h 2.38351 v -2.9362 z m 9.16383,0 v 2.9362 h 2.38432 v -2.9362 z m 18.32928,0 v 2.9362 h 2.38351 v -2.9362 z m 3.05001,0 v 2.9362 h 2.39081 v -2.9362 z m 9.17114,0 v 2.9362 h 2.3835 v -2.9362 z m 3.05731,0 v 2.9362 h 2.38351 v -2.9362 z m 9.17114,0 v 2.9362 h 2.3835 v -2.9362 z m 3.0565,0 v 2.9362 h 2.38432 v -2.9362 z m 9.17113,0 v 2.9362 h 2.38432 v -2.9362 z m 3.05732,0 v 2.9362 h 2.38351 v -2.9362 z m 6.10733,0 v 2.9362 h 2.3835 v -2.9362 z m 3.05731,0 v 2.9362 h 2.38351 v -2.9362 z m -82.50693,3.7574 v 2.9362 h 2.38432 v -2.9362 z m 3.05732,0 v 2.9362 h 2.3835 v -2.9362 z m 3.05731,0 v 2.9362 h 2.38351 v -2.9362 z m 3.05001,0 v 2.9362 h 2.38351 v -2.9362 z m 6.11382,0 v 2.9362 h 2.38432 v -2.9362 z m 15.27197,0 v 2.9362 h 2.3835 v -2.9362 z m 3.05731,0 v 2.9362 h 2.38351 v -2.9362 z m 12.22115,0 v 2.9362 h 2.3835 v -2.9362 z m 3.05731,0 v 2.9362 h 2.38351 v -2.9362 z m 9.17114,0 v 2.9362 h 2.3835 v -2.9362 z m 3.0565,0 v 2.9362 h 2.38432 v -2.9362 z m 9.17113,0 v 2.9362 h 2.38432 v -2.9362 z m 3.05732,0 v 2.9362 h 2.38351 v -2.9362 z m 9.16464,0 v 2.9362 h 2.38351 v -2.9362 z m 3.05651,0 v 2.9362 h 2.38431 v -2.9362 z m -85.56344,3.7656 v 2.9363 h 2.38432 v -2.9363 z m 6.11463,0 v 2.9363 h 2.38351 v -2.9363 z m 3.05001,0 v 2.9363 h 2.38351 v -2.9363 z m 3.05732,0 v 2.9363 h 2.3835 v -2.9363 z m 3.0565,0 v 2.9363 h 2.38432 v -2.9363 z m 12.21465,0 v 2.9363 h 2.38432 v -2.9363 z m 3.05732,0 v 2.9363 h 2.3835 v -2.9363 z m 3.05731,0 v 2.9363 h 2.38351 v -2.9363 z m 12.22115,0 v 2.9363 h 2.3835 v -2.9363 z m 3.05731,0 v 2.9363 h 2.38351 v -2.9363 z m 3.0565,0 v 2.9363 h 2.38432 v -2.9363 z m 3.05732,0 v 2.9363 h 2.3835 v -2.9363 z m 3.05732,0 v 2.9363 h 2.3835 v -2.9363 z m 12.22763,0 v 2.9363 h 2.38432 v -2.9363 z m 3.05732,0 v 2.9363 h 2.38351 v -2.9363 z m 9.16464,0 v 2.9363 h 2.38351 v -2.9363 z m 3.05651,0 v 2.9363 h 2.38431 v -2.9363 z m -85.56344,3.7657 v 2.9362 h 2.38432 v -2.9362 z m 9.16464,0 v 2.9362 h 2.38351 v -2.9362 z m 3.05732,0 v 2.9362 h 2.3835 v -2.9362 z m 3.0565,0 v 2.9362 h 2.38432 v -2.9362 z m 18.32928,0 v 2.9362 h 2.38351 v -2.9362 z m 3.05001,0 v 2.9362 h 2.39081 v -2.9362 z m 9.17114,0 v 2.9362 h 2.3835 v -2.9362 z m 3.05731,0 v 2.9362 h 2.38351 v -2.9362 z m 9.17114,0 v 2.9362 h 2.3835 v -2.9362 z m 3.0565,0 v 2.9362 h 2.38432 v -2.9362 z m 9.17113,0 v 2.9362 h 2.38432 v -2.9362 z m 3.05732,0 v 2.9362 h 2.38351 v -2.9362 z m 9.16464,0 v 2.9362 h 2.38351 v -2.9362 z m 3.05651,0 v 2.9362 h 2.38431 v -2.9362 z m -85.56344,3.7657 v 2.9362 h 2.38432 v -2.9362 z m 12.22196,0 v 2.9362 h 2.3835 v -2.9362 z m 3.0565,0 v 2.9362 h 2.38432 v -2.9362 z m 18.32928,0 v 2.9362 h 2.38351 v -2.9362 z m 3.05001,0 v 2.9362 h 2.39081 v -2.9362 z m 9.17114,0 v 2.9362 h 2.3835 v -2.9362 z m 3.05731,0 v 2.9362 h 2.38351 v -2.9362 z m 9.17114,0 v 2.9362 h 2.3835 v -2.9362 z m 3.0565,0 v 2.9362 h 2.38432 v -2.9362 z m 9.17113,0 v 2.9362 h 2.38432 v -2.9362 z m 3.05732,0 v 2.9362 h 2.38351 v -2.9362 z m 6.10733,0 v 2.9362 h 2.3835 v -2.9362 z m 3.05731,0 v 2.9362 h 2.38351 v -2.9362 z m -82.50693,3.7656 v 2.9362 h 2.38432 v -2.9362 z m 15.27846,0 v 2.9362 h 2.38432 v -2.9362 z m 9.15815,0 v 2.9362 h 2.3835 v -2.9362 z m 3.0565,0 v 2.9362 h 2.38432 v -2.9362 z m 3.05732,0 v 2.9362 h 2.3835 v -2.9362 z m 3.05731,0 v 2.9362 h 2.38351 v -2.9362 z m 12.22115,0 v 2.9362 h 2.3835 v -2.9362 z m 3.05731,0 v 2.9362 h 2.38351 v -2.9362 z m 9.17114,0 v 2.9362 h 2.3835 v -2.9362 z m 3.0565,0 v 2.9362 h 2.38432 v -2.9362 z m 9.17113,0 v 2.9362 h 2.38432 v -2.9362 z m 3.05732,0 v 2.9362 h 2.38351 v -2.9362 z m 3.05001,0 v 2.9362 h 2.39081 v -2.9362 z m 3.05732,0 v 2.9362 h 2.3835 v -2.9362 z" style="fill:#fff"/><path id="path9060" d="m 226.45667,215.67128 a 20.970034,3.3575337 0 0 1 25.72124,2.18432 20.970034,3.3575337 0 0 1 -12.7041,4.1945 20.970034,3.3575337 0 0 1 -26.63946,-1.88115 20.970034,3.3575337 0 0 1 10.77868,-4.33047" style="fill:#1a1a1a;fill-opacity:1;stroke:#000;stroke-width:.70006108;stroke-opacity:1"/></g></svg>