<svg xmlns="http://www.w3.org/2000/svg" xmlns:svg="http://www.w3.org/2000/svg" id="svg8" width="55" height="60" version="1.1" viewBox="0 0 14.552 15.875"><metadata id="metadata5"/><g id="layer1" transform="translate(0,-281.12497)"><circle style="opacity:1;fill:#ffe7d9;fill-opacity:1;stroke:none;stroke-width:.7663793;stroke-linecap:round;stroke-linejoin:round;stroke-miterlimit:4;stroke-dasharray:none;stroke-opacity:1" id="ellipse4648" cx="-214.357" cy="319.17" r="0"/><g id="g865" transform="matrix(0.02762838,0,0,0.030999,6.5517989,279.55589)"><path id="path4414" d="M 124.2036,158.66061 A 97.139877,107.34524 0 0 1 27.063717,266.00584 97.139877,107.34524 0 0 1 -70.076153,158.66061 97.139877,107.34524 0 0 1 27.063717,51.315372 97.139877,107.34524 0 0 1 124.2036,158.66061 Z" style="opacity:1;fill:#ff2a2a;fill-opacity:1;stroke:none;stroke-width:1.32291663;stroke-linecap:round;stroke-linejoin:round;stroke-miterlimit:4;stroke-dasharray:none;stroke-opacity:1"/><path id="ellipse834" d="M 102.28711,193.94727 A 367.14284,405.71429 0 0 0 -214.48633,395.37695 H 418.97461 A 367.14284,405.71429 0 0 0 102.28711,193.94727 Z M -251.4043,492.51953 A 367.14284,405.71429 0 0 0 -264.85547,599.66211 367.14284,405.71429 0 0 0 102.28711,1005.377 367.14284,405.71429 0 0 0 469.43164,599.66211 367.14284,405.71429 0 0 0 456.33203,492.51953 Z" transform="scale(0.26458333)" style="opacity:1;fill:#ffdbaf;fill-opacity:1;stroke:none;stroke-width:5;stroke-linecap:round;stroke-linejoin:round;stroke-miterlimit:4;stroke-dasharray:none;stroke-opacity:1"/><path id="path815" d="M 102.28906,193.94922 A 367.14283,405.71429 0 0 0 -213.98438,395.37695 H 418.92383 A 367.14283,405.71429 0 0 0 102.28906,193.94922 Z m -367.07812,404.28516 a 367.14283,405.71429 0 0 0 -0.0664,1.42773 367.14283,405.71429 0 0 0 367.14258,405.71489 367.14283,405.71429 0 0 0 367.14258,-405.71489 367.14283,405.71429 0 0 0 -0.0449,-1.42773 z" transform="scale(0.26458333)" style="opacity:1;fill:#000;fill-opacity:1;stroke:none;stroke-width:5;stroke-linecap:round;stroke-linejoin:round;stroke-miterlimit:4;stroke-dasharray:none;stroke-opacity:1"/><g id="g4392" transform="matrix(1.0882353,0,0,1.0882353,1.2673318,-12.732143)"><rect style="opacity:1;fill:#fff;fill-opacity:1;stroke:none;stroke-width:1.32291663;stroke-linecap:round;stroke-linejoin:round;stroke-miterlimit:4;stroke-dasharray:none;stroke-opacity:1" id="rect861" width="25.702" height="25.702" x="-27.214" y="131.446" ry="9.071"/><circle style="opacity:1;fill:#000;fill-opacity:1;stroke:none;stroke-width:1.32291663;stroke-linecap:round;stroke-linejoin:round;stroke-miterlimit:4;stroke-dasharray:none;stroke-opacity:1" id="path867" cx="-14.363" cy="144.298" r="4.819"/><circle id="circle875" cx="-12.771" cy="141.821" r="1.679" style="opacity:1;fill:#fff;fill-opacity:1;stroke:none;stroke-width:.46084139;stroke-linecap:round;stroke-linejoin:round;stroke-miterlimit:4;stroke-dasharray:none;stroke-opacity:1"/></g><g id="g4397" transform="matrix(0.85441919,0,0,0.85441919,9.9708961,21.006964)"><rect id="rect865" width="25.702" height="25.702" x="55.639" y="131.446" ry="9.071" style="opacity:1;fill:#fff;fill-opacity:1;stroke:none;stroke-width:1.32291663;stroke-linecap:round;stroke-linejoin:round;stroke-miterlimit:4;stroke-dasharray:none;stroke-opacity:1"/><circle id="circle869" cx="68.49" cy="144.298" r="4.819" style="opacity:1;fill:#000;fill-opacity:1;stroke:none;stroke-width:1.32291663;stroke-linecap:round;stroke-linejoin:round;stroke-miterlimit:4;stroke-dasharray:none;stroke-opacity:1"/><circle style="opacity:1;fill:#fff;fill-opacity:1;stroke:none;stroke-width:.46084139;stroke-linecap:round;stroke-linejoin:round;stroke-miterlimit:4;stroke-dasharray:none;stroke-opacity:1" id="circle877" cx="70.083" cy="141.821" r="1.679"/></g><path id="path4387" d="m 81.743516,141.37251 -28.846068,-13.76876 36.998309,9.02086 z" style="fill:#a02c2c;fill-opacity:1;stroke:none;stroke-width:.32127973px;stroke-linecap:butt;stroke-linejoin:miter;stroke-opacity:1"/><path id="path4385" d="M -38.870626,144.00804 -13.320719,130.26757 6.4020156,141.97241 -13.320719,118.56269 Z" style="fill:#782121;fill-opacity:1;stroke:none;stroke-width:.47281289px;stroke-linecap:butt;stroke-linejoin:miter;stroke-opacity:1"/><rect id="rect4442" width="46.398" height="27.021" x="-47.687" y="533.16" ry="10.574" style="opacity:1;fill:#ffdbac;fill-opacity:1;stroke:none;stroke-width:.95698869;stroke-linecap:round;stroke-linejoin:round;stroke-miterlimit:4;stroke-dasharray:none;stroke-opacity:1"/><path id="rect4433" d="m -24.48787,439.87498 c -17.88266,0 -32.27917,14.97224 -32.27917,33.57004 v 59.85992 c 0,0.61079 0.0164,1.21748 0.047,1.82004 H 7.74427 c 0.0307,-0.60256 0.047,-1.20925 0.047,-1.82004 v -59.85992 c 0,-18.5978 -14.39651,-33.57004 -32.27917,-33.57004 z" style="opacity:1;fill:#1a1a1a;fill-opacity:1;stroke:none;stroke-width:.99151468;stroke-linecap:round;stroke-linejoin:round;stroke-miterlimit:4;stroke-dasharray:none;stroke-opacity:1"/><rect id="rect4440" width="68.429" height="8.119" x="-58.702" y="534.77" style="opacity:1;fill:#999;fill-opacity:1;stroke:none;stroke-width:1.44975638;stroke-linecap:round;stroke-linejoin:round;stroke-miterlimit:4;stroke-dasharray:none;stroke-opacity:1"/><path style="opacity:1;fill:#161616;fill-opacity:1;stroke:none;stroke-width:.83969003;stroke-linecap:round;stroke-linejoin:round;stroke-miterlimit:4;stroke-dasharray:none;stroke-opacity:1" id="path4596" d="m -68.464095,298.57267 c 11.880099,0 21.444229,12.62946 21.444229,28.31716 0,15.68771 -9.56895,28.69807 -21.444229,28.31715 l -156.942365,-5.03415 c -0.15928,-0.005 1.91771,1.25496 1.75924,1.25021 l -7.82526,-41.51552 c -4.31312,-18.88286 -5.27226,-47.83286 -5.11293,-47.83286 z"/><g id="g4425" transform="matrix(1,0,0,1.1522843,2.8761654e-6,-44.900729)"><rect style="opacity:1;fill:#000;fill-opacity:1;stroke:none;stroke-width:1.35088837;stroke-linecap:round;stroke-linejoin:round;stroke-miterlimit:4;stroke-dasharray:none;stroke-opacity:1" id="rect4419" width="258.233" height="171.45" x="-102.053" y="283.242" ry="76.2"/><rect style="opacity:1;fill:#000;fill-opacity:1;stroke:none;stroke-width:1.49154747;stroke-linecap:round;stroke-linejoin:round;stroke-miterlimit:4;stroke-dasharray:none;stroke-opacity:1" id="rect4421" width="79.375" height="79.375" x="-12.624" y="246.2"/></g><g id="g4672"><circle style="opacity:1;fill:#161616;fill-opacity:1;stroke:none;stroke-width:.67702204;stroke-linecap:round;stroke-linejoin:round;stroke-miterlimit:4;stroke-dasharray:none;stroke-opacity:1" id="path4587" cx="78.615" cy="419.767" r="30.692"/><rect id="rect4464" width="46.398" height="27.021" x="55.416" y="492.279" ry="10.574" style="opacity:1;fill:#ffdbac;fill-opacity:1;stroke:none;stroke-width:.95698869;stroke-linecap:round;stroke-linejoin:round;stroke-miterlimit:4;stroke-dasharray:none;stroke-opacity:1"/><path id="path4466" d="m 78.61483,398.9943 c -17.88266,0 -32.27917,14.97224 -32.27917,33.57004 v 59.85992 c 0,0.61079 0.0164,1.21748 0.047,1.82004 h 64.46431 c 0.0307,-0.60256 0.047,-1.20925 0.047,-1.82004 v -59.85992 c 0,-18.5978 -14.39651,-33.57004 -32.27917,-33.57004 z" style="opacity:1;fill:#1a1a1a;fill-opacity:1;stroke:none;stroke-width:.99151468;stroke-linecap:round;stroke-linejoin:round;stroke-miterlimit:4;stroke-dasharray:none;stroke-opacity:1"/><rect id="rect4468" width="68.429" height="8.119" x="44.401" y="493.889" style="opacity:1;fill:#999;fill-opacity:1;stroke:none;stroke-width:1.44975638;stroke-linecap:round;stroke-linejoin:round;stroke-miterlimit:4;stroke-dasharray:none;stroke-opacity:1"/></g><path id="path4666" d="m 121.96843,354.70047 c -11.88009,0 -21.44423,-12.62946 -21.44423,-28.31716 0,-15.68771 9.56895,-28.69807 21.44423,-28.31715 l 156.94236,5.03415 c 0.15928,0.005 -1.91771,-1.25496 -1.75924,-1.25021 l 7.82526,41.51552 c 4.31312,18.88286 5.27226,47.83286 5.11293,47.83286 z" style="opacity:1;fill:#161616;fill-opacity:1;stroke:none;stroke-width:.83969003;stroke-linecap:round;stroke-linejoin:round;stroke-miterlimit:4;stroke-dasharray:none;stroke-opacity:1"/></g></g></svg>