<svg xmlns="http://www.w3.org/2000/svg" xmlns:svg="http://www.w3.org/2000/svg" id="svg8" width="55.012" height="60.002" version="1.1" viewBox="0 0 14.555 15.876"><metadata id="metadata5"/><g id="layer1" transform="translate(-94.99826,-133.70396)"><g id="g4808" transform="matrix(0.05312161,0,0,0.04760247,97.094535,134.78503)"><rect id="rect10" width="136.071" height="114.149" x="26.243" y="21.502" ry="16.564" transform="rotate(-0.7135962)" style="fill:#d6c37d;fill-opacity:1;stroke:#060606;stroke-width:3.96499991;stroke-miterlimit:4;stroke-dasharray:none;stroke-opacity:1"/><rect id="rect10-7" width="114.346" height="110.792" x="44.442" y="22.906" ry="16.077" transform="matrix(0.99989653,-0.0143851,0.01078255,0.99994187,0,0)" style="fill:#ffd2a2;fill-opacity:1;stroke:#060606;stroke-width:0;stroke-miterlimit:4;stroke-dasharray:none;stroke-opacity:1"/><path id="path4587" d="m 374.10742,-85.320312 c -38.34145,-0.583802 -71.59526,17.082139 -96.96484,67.839843 C 85.150462,-160.81664 78.914767,168.72511 24.574219,242.73242 l -3.876953,0.01 1.878906,2.57617 C 21.729052,246.35118 20.871651,247.3276 20,248.23461 l 4.478516,-0.3086 81.408204,111.60938 -3.0293,-117.01563 131.42774,-140 -2.85743,111.42969 34.28711,-100 54.28516,91.42773 42.85742,-97.14257 62.85742,102.85742 8.57032,-65.71485 71.42968,88.57227 L 580,151.0918 l 28.57227,85.71289 60,5.71484 C 615.78005,154.68323 659.17827,101.32444 520,-34.623047 467.54971,-60.556201 417.56107,-84.658671 374.10742,-85.320312 Z" transform="scale(0.26458333)" style="fill:#803300;stroke:#000;stroke-width:.99999994px;stroke-linecap:butt;stroke-linejoin:miter;stroke-opacity:1"/><g id="g4640" transform="translate(0,5.3453906)"><ellipse style="fill:#fff;fill-opacity:1;stroke:#060606;stroke-width:4.26226473;stroke-miterlimit:4;stroke-dasharray:none;stroke-opacity:1" id="path4603" cx="92.982" cy="74.372" rx="21.814" ry="21.814"/><g id="g4617" transform="matrix(-1.0388353,0,0,1.0840608,290.6734,-17.736068)"><ellipse id="path4605" cx="182.94" cy="84.577" rx="4.536" ry="7.937" style="fill:#2b0000;fill-opacity:1;stroke:#060606;stroke-width:4.80000019;stroke-miterlimit:4;stroke-dasharray:none;stroke-opacity:1"/><path id="path4613" d="m 190.03548,80.419643 -7.28399,5.102677 7.72545,3.401785 z" style="fill:#fff;stroke:#000;stroke-width:0;stroke-linecap:butt;stroke-linejoin:miter;stroke-miterlimit:4;stroke-dasharray:none;stroke-opacity:1"/></g><path style="fill:#c8b7b7;stroke:#000;stroke-width:0;stroke-linecap:butt;stroke-linejoin:miter;stroke-miterlimit:4;stroke-dasharray:none;stroke-opacity:1" id="path4633" d="m 74.835466,68.751822 c 4.405786,8.374445 5.763121,16.748891 17.639789,25.123336 -3.829884,-1.519425 -9.427481,0.886021 -12.35925,-5.123979 -7.767471,-2.342883 -7.901808,-21.216066 -5.280539,-19.999357 z"/></g><g id="g4652" transform="matrix(0.82439161,0,0,1,72.644525,4.3725619)"><ellipse id="ellipse4642" cx="92.982" cy="74.372" rx="21.814" ry="21.814" style="fill:#fff;fill-opacity:1;stroke:#060606;stroke-width:4.26226473;stroke-miterlimit:4;stroke-dasharray:none;stroke-opacity:1"/><g id="g4648" transform="matrix(-1.0388353,0,0,1.0840608,290.6734,-17.736068)"><ellipse style="fill:#2b0000;fill-opacity:1;stroke:#060606;stroke-width:4.80000019;stroke-miterlimit:4;stroke-dasharray:none;stroke-opacity:1" id="ellipse4644" cx="182.94" cy="84.577" rx="4.536" ry="7.937"/><path style="fill:#fff;stroke:#000;stroke-width:0;stroke-linecap:butt;stroke-linejoin:miter;stroke-miterlimit:4;stroke-dasharray:none;stroke-opacity:1" id="path4646" d="m 190.03548,80.419643 -7.28399,5.102677 7.72545,3.401785 z"/></g><path id="path4650" d="m 74.835466,68.751822 c 4.405786,8.374445 5.763121,16.748891 17.639789,25.123336 -3.829884,-1.519425 -9.427481,0.886021 -12.35925,-5.123979 -7.767471,-2.342883 -7.901808,-21.216066 -5.280539,-19.999357 z" style="fill:#c8b7b7;stroke:#000;stroke-width:0;stroke-linecap:butt;stroke-linejoin:miter;stroke-miterlimit:4;stroke-dasharray:none;stroke-opacity:1"/></g><path id="path4654" d="m 125.85836,93.539942 4.59288,7.842608 -4.97562,6.19153 -2.29645,-2.27022 3.44466,-4.12769 -4.01877,-5.159615 z" style="fill:#241c1c;stroke:#000;stroke-width:.19673835px;stroke-linecap:butt;stroke-linejoin:miter;stroke-opacity:1"/><ellipse id="path4656" cx="146.811" cy="78.686" rx="7.216" ry="10.424" transform="rotate(17.800703)" style="fill:#241c1c;fill-opacity:1;stroke:#060606;stroke-width:0;stroke-miterlimit:4;stroke-dasharray:none;stroke-opacity:1"/><path id="path4660" d="m 118.13313,-13.032652 c 18.40535,5.9598439 23.70075,16.8600888 31.79769,26.704586 C 140.8945,3.3307007 130.14356,-5.4310775 118.13313,-13.032652 Z" style="fill:#f4d7d7;stroke:#000;stroke-width:0;stroke-linecap:butt;stroke-linejoin:miter;stroke-miterlimit:4;stroke-dasharray:none;stroke-opacity:1"/><path style="fill:#f4d7d7;stroke:#000;stroke-width:0;stroke-linecap:butt;stroke-linejoin:miter;stroke-miterlimit:4;stroke-dasharray:none;stroke-opacity:1" id="path4662" d="M 41.973147,5.5826341 C 23.567797,11.542478 30.032256,31.529887 21.935316,41.374384 30.971636,31.033151 29.962717,13.184209 41.973147,5.5826341 Z"/><path id="path4729" d="m 197.30357,210.82143 -13.9281,44.23427 36.28573,6.04762 12.85118,-18.89881 -3.77976,-24.94642 z" style="fill:#fca;stroke:#000;stroke-width:3.86500001;stroke-linecap:butt;stroke-linejoin:miter;stroke-miterlimit:4;stroke-dasharray:none;stroke-opacity:1"/><path id="path4731" d="m 213.93452,225.94047 -4.53571,18.14286 6.80357,1.5119 12.53024,-28.33714 -31.42905,-6.43666 v 0" style="fill:none;stroke:#000;stroke-width:3.66499996;stroke-linecap:butt;stroke-linejoin:miter;stroke-miterlimit:4;stroke-dasharray:none;stroke-opacity:1"/><g id="g4672" transform="translate(-1.5119048,12.85119)"><g id="g4681" transform="matrix(1.2069929,0,0,1.0539617,-19.906084,-20.156997)"><g id="g4676"><path style="opacity:.98999999;fill:red;stroke:#000;stroke-width:3.62654638;stroke-linecap:butt;stroke-linejoin:miter;stroke-miterlimit:4;stroke-dasharray:none;stroke-opacity:1" id="path4666" d="m 56.126598,160.91116 c -3.485055,27.02416 -13.923971,57.46126 -6.949005,79.35165 -8.121257,-3.55087 126.330147,56.16025 120.494867,8.66607 l -23.80401,-88.01771 c -10.71897,-45.61287 -78.55515,-16.92512 -89.741852,-1e-5 z"/><path style="fill:#a40;stroke:#000;stroke-width:3.06500006;stroke-linecap:butt;stroke-linejoin:miter;stroke-miterlimit:4;stroke-dasharray:none;stroke-opacity:1" id="path4668" d="m 49.177593,240.26281 112.253197,-3.66573 8.24167,12.3318 c -4.67488,13.01346 -12.99959,20.76514 -24.08022,25.97368 -59.927788,28.1695 -107.768933,2.00378 -96.414647,-34.63975 z"/></g></g><path id="path4683" d="m 54.531571,124.86968 c -22.6195,13.22132 -52.0913397,12.73796 -65.76786,43.84525 l -15.875,43.84524 48.38096,15.11904 9.07142,-41.57738 17.49723,-36.66463 41.46706,-23.81156 z" style="fill:red;stroke:#000;stroke-width:4.66499996;stroke-linecap:butt;stroke-linejoin:miter;stroke-miterlimit:4;stroke-dasharray:none;stroke-opacity:1"/><path id="path4685" d="m -27.111289,212.56017 c -8.715033,12.27161 -9.500851,29.07893 -8.418472,41.35054 l 16.630952,-0.75596 3.023809,-15.11904 -3.023809,15.11904 15.8749996,3.77976 L 6.0922625e-8,245.59524 -3.0238094,257.69048 18.142857,259.20239 c 2.679624,-8.87038 2.238196,-20.8618 3.126814,-31.52318 z" style="fill:#fca;stroke:#000;stroke-width:4.06500006;stroke-linecap:butt;stroke-linejoin:miter;stroke-miterlimit:4;stroke-dasharray:none;stroke-opacity:1"/><path id="path4689" d="m 170.08929,185.875 28.72618,12.09524 -13.9281,44.23427 z" style="fill:red;stroke:#000;stroke-width:3.46499991;stroke-linecap:butt;stroke-linejoin:miter;stroke-miterlimit:4;stroke-dasharray:none;stroke-opacity:1"/><path id="path4701" d="M 230.24451,221.03783 Z" style="fill:none;stroke:#000;stroke-width:.26458332px;stroke-linecap:butt;stroke-linejoin:miter;stroke-opacity:1"/></g><path id="path4733" d="m -28.623194,225.41136 c 9.085808,-23.00308 6.318291,-43.66404 49.892844,-71.81547 v 0 c -25.5968988,16.51657 -35.747793,44.36136 -49.892844,71.81547 z" style="fill:#e9afaf;stroke:#000;stroke-width:0;stroke-linecap:butt;stroke-linejoin:miter;stroke-miterlimit:4;stroke-dasharray:none;stroke-opacity:1"/><path id="path4735" d="m 87.793474,138.47683 c 10.072545,33.53357 25.478296,66.00049 16.527956,103.33864 h 43.08928 C 147.77363,204.65283 142.45333,169.3846 124.73214,138.25 Z" style="fill:#916f6f;stroke:#000;stroke-width:4.26499987;stroke-linecap:butt;stroke-linejoin:miter;stroke-miterlimit:4;stroke-dasharray:none;stroke-opacity:1"/><path id="path4743" d="M 141.36309,194.94643 95.249987,136.73809 124.73214,138.25 c 11.99214,33.10726 13.35516,37.04167 16.63095,56.69643 z" style="fill:#e3dbdb;stroke:#000;stroke-width:0;stroke-linecap:butt;stroke-linejoin:miter;stroke-miterlimit:4;stroke-dasharray:none;stroke-opacity:1"/><path id="path4745" d="m 37.787913,240.54264 -0.604856,-28.6385 c 21.157279,20.25805 44.50214,22.10225 67.138373,29.91133 z" style="opacity:.77399998;fill:#a00;stroke:#000;stroke-width:0;stroke-linecap:butt;stroke-linejoin:miter;stroke-miterlimit:4;stroke-dasharray:none;stroke-opacity:1"/><path id="path4747" d="m 47.624988,307.58333 65.011912,1.5119 c 9.62167,-7.71123 4.20228,-17.49158 -2.26785,-27.21428 0,0 -24.246542,-28.83247 -53.672622,-3.77977 -11.98952,9.82739 -10.92815,19.65477 -9.07144,29.48215 z" style="fill:#ac9d93;stroke:#000;stroke-width:3.36500001;stroke-linecap:butt;stroke-linejoin:miter;stroke-miterlimit:4;stroke-dasharray:none;stroke-opacity:1"/><path style="fill:#ac9d93;stroke:#000;stroke-width:3.96499991;stroke-linecap:butt;stroke-linejoin:miter;stroke-miterlimit:4;stroke-dasharray:none;stroke-opacity:1" id="path4749" d="m 128.51189,305.31547 65.01191,1.5119 c 9.62167,-7.71123 4.20228,-17.49158 -2.26785,-27.21428 0,0 -24.24654,-28.83247 -53.67262,-3.77977 -11.98952,9.82739 -10.92815,19.65477 -9.07144,29.48215 z"/><path style="fill:#280b0b;stroke:#000;stroke-width:1.9883914;stroke-linecap:butt;stroke-linejoin:miter;stroke-miterlimit:4;stroke-dasharray:none;stroke-opacity:1" id="path4766" d="m 50.074338,306.37734 28.458172,1.20599 c 4.211769,-6.15096 1.839497,-13.95239 -0.992724,-21.70783 0,0 -10.613628,-22.9986 -23.494536,-3.01498 -5.248266,7.83894 -4.783664,15.67788 -3.970912,23.51682 z"/><path id="path4768" d="m 128.51189,305.31547 28.45817,1.20599 c 4.21177,-6.15096 1.8395,-13.95239 -0.99272,-21.70783 0,0 -10.61363,-22.9986 -23.49454,-3.01498 -5.24826,7.83894 -4.78366,15.67788 -3.97091,23.51682 z" style="fill:#280b0b;stroke:#000;stroke-width:1.9883914;stroke-linecap:butt;stroke-linejoin:miter;stroke-miterlimit:4;stroke-dasharray:none;stroke-opacity:1"/></g></g></svg>