<svg xmlns="http://www.w3.org/2000/svg" xmlns:svg="http://www.w3.org/2000/svg" id="svg8" width="55" height="60" version="1.1" viewBox="0 0 210 297"><metadata id="metadata5"/><g id="layer1"><g id="g5059" style="fill:navy"><path id="path5061" d="M 18.985796,58.2456 V 241.18147 L 83.411618,230.6994 V 68.233006 Z" points="18.986 241.181 83.412 230.699 83.412 68.233 18.986 58.246" style="fill:navy;fill-rule:evenodd;stroke:none;stroke-width:.60348982;stroke-linejoin:round"/><path id="path5069" d="M 18.985796,241.18147 110.47877,280.91456 188.26156,259.48669 83.411618,230.6994 Z" points="110.479 280.915 188.262 259.487 83.412 230.699 18.986 241.181" style="fill:navy;fill-rule:evenodd;stroke:none;stroke-width:.60348982;stroke-linejoin:round"/><path id="path5071" d="M 83.411618,68.233006 188.26156,26.279657 V 259.48669 L 83.411618,230.6994 Z" points="188.262 26.28 188.262 259.487 83.412 230.699 83.412 68.233" style="fill:navy;fill-rule:evenodd;stroke:none;stroke-width:.60348982;stroke-linejoin:round"/><path id="path5063" d="M 18.985796,58.2456 110.47877,3.0837437 188.26156,26.279657 83.411618,68.233006 Z" points="110.479 3.084 188.262 26.28 83.412 68.233 18.986 58.246" style="fill:navy;fill-rule:evenodd;stroke:none;stroke-width:.60348982;stroke-linejoin:round"/><path id="path5067" d="M 110.47877,3.0837437 V 280.91456 l 77.78279,-21.42787 V 26.279657 Z" points="110.479 280.915 188.262 259.487 188.262 26.28 110.479 3.084" style="fill:navy;fill-rule:evenodd;stroke:none;stroke-width:.60348982;stroke-linejoin:round"/><path id="path5065" d="M 18.985796,58.2456 110.47877,3.0837437 V 280.91456 L 18.985796,241.18147 Z" points="110.479 3.084 110.479 280.915 18.986 241.181 18.986 58.246" style="fill:navy;fill-rule:evenodd;stroke:none;stroke-width:.60348982;stroke-linejoin:round"/></g><path style="fill:#e3dbdb;stroke:#000;stroke-width:.26458332px;stroke-linecap:butt;stroke-linejoin:miter;stroke-opacity:1" id="path5087" d="m 109.19301,3.0837436 c 0,277.8308064 0,277.8308064 0,277.8308064 z"/><path style="fill:none;stroke:#000;stroke-width:.26458332px;stroke-linecap:butt;stroke-linejoin:miter;stroke-opacity:1" id="path5089" d="m -121.70833,319.67858 9.07143,33.2619"/><path style="fill:#e3dbdb;stroke:#000;stroke-width:.26458332px;stroke-linecap:butt;stroke-linejoin:miter;stroke-opacity:1" id="path5093" d="m 109.19301,3.0837436 c 0,277.8308064 0,277.8308064 0,277.8308064 v 0"/><rect style="fill:#e3dbdb;stroke-width:.26458332" id="rect5095" width="23.435" height="27.97" x="114.149" y="52.827"/><rect style="fill:#e3dbdb;stroke-width:.22361372" id="rect5097" width="22.679" height="27.97" x="157.994" y="54.339"/></g></svg>