<svg xmlns="http://www.w3.org/2000/svg" xmlns:svg="http://www.w3.org/2000/svg" id="svg2" width="430.544" height="325.295" version="1.1"><defs id="defs4"><filter style="color-interpolation-filters:sRGB" id="filter6580"><feColorMatrix id="feColorMatrix6576" result="color1" type="hueRotate" values="263"/><feColorMatrix id="feColorMatrix6578" result="fbSourceGraphic" type="saturate" values="1"/><feColorMatrix id="feColorMatrix6582" in="fbSourceGraphic" result="fbSourceGraphicAlpha" values="0 0 0 -1 0 0 0 0 -1 0 0 0 0 -1 0 0 0 0 1 0"/><feColorMatrix id="feColorMatrix6584" in="fbSourceGraphic" result="color1" type="hueRotate" values="263"/><feColorMatrix id="feColorMatrix6586" result="fbSourceGraphic" type="saturate" values="1"/><feColorMatrix id="feColorMatrix6588" in="fbSourceGraphic" result="fbSourceGraphicAlpha" values="0 0 0 -1 0 0 0 0 -1 0 0 0 0 -1 0 0 0 0 1 0"/><feColorMatrix id="feColorMatrix6590" in="fbSourceGraphic" result="color1" type="hueRotate" values="263"/><feColorMatrix id="feColorMatrix6592" result="fbSourceGraphic" type="saturate" values="1"/><feColorMatrix id="feColorMatrix6594" in="fbSourceGraphic" result="fbSourceGraphicAlpha" values="0 0 0 -1 0 0 0 0 -1 0 0 0 0 -1 0 0 0 0 1 0"/><feColorMatrix id="feColorMatrix6596" in="fbSourceGraphic" result="color1" type="hueRotate" values="263"/><feColorMatrix id="feColorMatrix6598" result="fbSourceGraphic" type="saturate" values="1"/><feColorMatrix id="feColorMatrix6714" in="fbSourceGraphic" result="fbSourceGraphicAlpha" values="0 0 0 -1 0 0 0 0 -1 0 0 0 0 -1 0 0 0 0 1 0"/><feColorMatrix id="feColorMatrix6716" in="fbSourceGraphic" result="color2" values="0 0 -1 0 1 0 -1 0 0 1 -1 0 0 0 1 -0.21 -0.72 -0.07 1.31 0"/></filter></defs><metadata id="metadata7"/><g id="layer1" transform="translate(-53.643411,-569.625)"><path id="path3908" d="M 474.37627,771.83168 268.91558,649.23729 63.454937,771.83164 268.91563,894.42603 Z" style="fill:#000;stroke:#000;stroke-width:.99999994px;stroke-linecap:round;stroke-linejoin:round;stroke-opacity:1;fill-opacity:1"/><path style="fill:#000;fill-opacity:1;stroke:none;stroke-width:.41082248px;stroke-linecap:round;stroke-linejoin:round;stroke-opacity:1;filter:url(#filter6580)" id="path3982" d="m 148.17672,721.37495 9.3125,5.5625 -9.25,5.53125 9.21875,5.5625 -9.21875,5.53125 9.28125,5.5625 -9.25,5.53125 9.28125,5.5625 -9.21875,5.53125 -0.0312,0 -9.28125,-5.5625 9.21875,-5.53125 -9.25,-5.5625 9.21875,-5.53125 -9.25,-5.5625 9.21875,-5.53125 0.0312,0 -9.25,-5.5625 z m 9.34375,27.75 9.21875,-5.53125 -9.25,-5.5625 9.25,-5.53125 -9.25,-5.5625 c 9.2812,5.5625 0,0 9.2812,5.5625 l 9.25,5.5625 -9.25,5.53125 9.28125,5.5625 -9.21875,5.53125 9.25,5.5625 -9.21875,5.53125 9.25,5.5625 -9.21875,5.53125 9.28125,5.5625 -9.21875,5.53125 9.25,5.5625 -9.21875,5.53125 9.28125,5.5625 -9.25,5.53125 c -9.28115,5.53125 0,0 -9.2812,5.53125 l 9.25,-5.53125 -9.25,-5.5625 9.21875,-5.53125 -4.625,-2.78125 -4.625,-2.78125 9.21875,-5.53125 -9.28125,-5.5625 9.09375,-5.46875 0.125,-0.0625 -9.28125,-5.5625 9.25,-5.53125 -9.25,-5.5625 9.21875,-5.53125 z m 0.21875,66.5625 -9.25,5.53125 -0.0312,0 -9.25,-5.5625 9.21875,-5.53125 -4.625,-2.78125 -4.625,-2.78125 9.21875,-5.53125 -9.25,-5.5625 9.25,-5.53125 9.28125,5.5625 -9.21875,5.53125 9.25,5.5625 -9.25,5.53125 9.28125,5.5625 z m 18.53125,-11.0625 9.21875,-5.53125 -9.25,-5.5625 9.2188,-5.5312 0.0312,0 9.28125,5.5625 -9.25,5.53125 c -9.25,5.5312 -0.0312,-5e-5 -9.24995,5.53125 z m -46.62495,-72.18745 9.28125,5.5625 -9.21875,5.53125 9.25,5.5625 -9.21875,5.53125 -0.0312,0 -9.25,-5.5625 9.21875,-5.53125 -9.28125,-5.5625 9.25,-5.53125 z m 55.71875,11.18745 9.21875,5.5625 -9.25,5.53125 -9.25,-5.5625 9.25,-5.53125 -9.28125,-5.5625 c 9.3125,5.5625 -0.0314,0 9.3125,5.5625 z m -0.0313,11.09375 9.28125,5.5625 -9.0625,5.4375 9.25,5.5625 -9.21875,5.53125 9.25,5.5625 -9.21875,5.53125 -0.0312,0 -9.28125,-5.5625 9.25,-5.53125 -9.25,-5.5625 9.0625,-5.4375 -4.625,-2.78125 -4.625,-2.78125 9.21875,-5.53125 z m -74.34375,-11.1563 9.28125,5.5625 -9.21875,5.53125 9.25,5.5625 -9.21875,5.53125 9.28125,5.5625 -9.25,5.53125 9.28125,5.5625 -9.25,5.53125 9.25,5.5625 -9.21875,5.53125 -0.0312,0 -9.25,-5.5625 9.21875,-5.53125 -9.28125,-5.5625 9.25,-5.53125 -9.25,-5.5625 9.21875,-5.53125 -9.25,-5.5625 9.21875,-5.53125 -9.28125,-5.5625 9.25,-5.53125 z m -9.1562,38.8126 -9.250003,5.53125 -0.0312,0 -9.25,-5.5625 9.21875,-5.53125 -9.25,-5.5625 9.21875,-5.53125 -4.625,-2.78125 -4.625,-2.78125 9.25,-5.53125 9.281253,5.5625 -9.218753,5.53125 9.250003,5.5625 -9.250003,5.53125 z m 18.53125,-11.0625 9.21875,-5.53125 -9.25,-5.5625 9.21875,-5.53125 0.0312,0 9.28125,5.5625 -9.25,5.53125 9.28125,5.5625 -9.21875,5.53125 9.25,5.5625 -9.21875,5.53125 9.25,5.5625 -9.25,5.53125 -0.0312,0 -4.625,-2.78125 -4.625,-2.78125 9.21875,-5.53125 -9.21875,-5.5625 9.21875,-5.53125 z m 83.6875,-16.625 9.25,5.53125 -9.25,5.53125 -9.25,-5.53125 9.09375,-5.46875 -9.28125,-5.5625 c 9.28125,5.5625 0,0 9.4375,5.5 z m 0,11.0625 9.28125,5.5625 -9.21875,5.53125 9.28125,5.5625 -9.25,5.53125 c -9.24995,5.53125 0,0 -9.24995,5.53125 0,0 -0.1251,0.0937 9.24995,-5.53125 -9.2812,-5.5625 -9.2812,-5.5625 -9.2812,-5.5625 l 9.21875,-5.53125 -4.625,-2.78125 -4.625,-2.78125 9.21875,-5.53125 z m 9.34375,16.65625 9.21875,-5.53125 -9.25,-5.5625 9.25,-5.53125 c -14.97178,-8.92597 -9.3125,-5.5625 0.0312,0 l 9.25,5.5625 -9.25,5.53125 c -9.24995,5.53125 0,0 -9.24995,5.53125 z M 73.958017,765.6875 l 9.28125,5.5625 -9.21875,5.53125 -0.0312,0 -9.28125,-5.5625 9.25,-5.53125 z m 157.968753,5.65625 c -9.3125,5.53125 -9.2813,5.53125 0,0 z m -83.75005,-5.53125 9.25,5.5625 -9.21875,5.53125 9.25,5.5625 -9.21875,5.53125 -0.0312,0 -4.625,-2.78125 -4.625,-2.78125 9.21875,-5.53125 -9.25,-5.5625 9.21875,-5.53125 z M 129.86427,799 l 9.28125,5.5625 -9.21875,5.53125 -0.0312,0 -9.28125,-5.5625 9.25,-5.53125 z" transform="matrix(2.4341412,0,0,2.4341412,-92.800509,-1106.2831)"/><path style="fill:#000;fill-rule:nonzero;stroke:none;stroke-width:1px;stroke-linecap:butt;stroke-linejoin:miter;stroke-opacity:1" id="path6725" d="m -659.34809,1215.3045 c 148.575,-88.7251 594.30001,-354.90018 742.875012,-443.62522 z M 83.014212,770.82072 C -65.560791,859.54576 -511.2858,1125.7209 -659.8608,1214.4459 Z"/></g></svg>