<svg xmlns="http://www.w3.org/2000/svg" xmlns:svg="http://www.w3.org/2000/svg" id="svg2" width="430.544" height="325.295" version="1.1"><metadata id="metadata7"/><g id="layer1" transform="translate(-53.643411,-569.625)"><path id="path3908" d="M 474.37627,771.83168 268.91558,649.23729 63.454937,771.83164 268.91563,894.42603 z" style="fill:#fc0;stroke:#000;stroke-width:.99999994px;stroke-linecap:round;stroke-linejoin:round;stroke-opacity:1"/><path style="fill:#fc0;stroke-width:.50507629" id="path275" d="m 98.198458,149.19278 c 0.171685,-0.2778 0.539439,-0.50508 0.817231,-0.50508 0.277792,0 0.364606,0.22728 0.192922,0.50508 -0.171685,0.27779 -0.539439,0.50507 -0.817231,0.50507 -0.277792,0 -0.364607,-0.22728 -0.192922,-0.50507 z" transform="translate(53.643411,569.625)"/><path style="fill:#fc0;stroke-width:.50507629" id="path277" transform="translate(53.643411,569.625)"/><path style="fill:#fc0;stroke-width:.50507629" id="path279" transform="translate(53.643411,569.625)"/><path style="fill:#f60;stroke-width:.50507629" id="path12" d="M 113.28203,263.16842 C 57.380283,229.78887 11.639313,202.36414 11.635434,202.22459 11.62395,201.81139 214.78691,80.750207 215.3979,80.806168 c 1.02753,0.09411 203.35915,121.055552 203.2132,121.488492 -0.13747,0.40774 -202.13952,121.12059 -203.18444,121.41942 -0.2778,0.0794 -46.24288,-27.16611 -102.14463,-60.54566 z" transform="translate(53.643411,569.625)"/><path style="fill:red;stroke-width:.71428573" id="path166" d="M 213.50835,322.40309 C 209.12448,320.11561 101.1761,255.86257 39.826997,219.02448 24.800211,210.00139 12.505569,202.41445 12.505569,202.16459 c 0,-0.54969 152.027181,-91.45965 193.447211,-115.678509 l 9.51865,-5.565681 6.19564,3.642781 c 53.66409,31.552249 195.8385,116.992659 195.8385,117.690109 0,0.6108 -43.37347,26.78013 -132.85714,80.15918 -75.46565,45.01698 -68.74623,41.23973 -71.14008,39.99062 z" transform="translate(53.643411,569.625)"/></g></svg>