<svg xmlns="http://www.w3.org/2000/svg" xmlns:svg="http://www.w3.org/2000/svg" id="svg8" width="429.544" height="256.314" version="1.1" viewBox="0 0 113.65 67.816"><metadata id="metadata5"/><g id="layer1" transform="translate(0,-229.18357)"><rect style="opacity:1;fill:none;fill-opacity:1;stroke:none;stroke-width:.82574582;stroke-linecap:round;stroke-linejoin:round;stroke-miterlimit:4;stroke-dasharray:none;stroke-opacity:1" id="rect815" width="66.174" height="66.174" x="-256.686" y="256.686" transform="matrix(0.85867633,-0.51251826,0.85867633,0.51251826,0,0)"/><g id="g850" transform="matrix(0.94786724,-0.15159323,0.25398026,0.56575365,-53.607283,111.42313)"><ellipse id="path843" cx="23.52" cy="256.91" rx="7.484" ry="9.087" style="opacity:1;fill:#ff0;fill-opacity:1;stroke:#000;stroke-width:.26458332;stroke-linecap:round;stroke-linejoin:round;stroke-miterlimit:4;stroke-dasharray:none;stroke-opacity:1"/><path id="path845" d="m 23.54083,266.02956 c 0,0 -2.345516,1.99848 -0.439591,5.13673 1.848382,3.0435 0.104794,4.26776 -0.439591,5.13673 -1.421359,2.26884 -1.255891,3.77461 -0.439591,5.13672 0.853755,1.42461 -0.439591,5.13673 -0.439591,5.13673" style="fill:none;stroke:#000;stroke-width:.26458332px;stroke-linecap:butt;stroke-linejoin:miter;stroke-opacity:1"/></g><g id="g874" transform="matrix(0.90272616,0.09594506,-0.16074697,0.53881029,78.468575,116.49933)"><ellipse style="opacity:1;fill:#f55;fill-opacity:1;stroke:#000;stroke-width:.26458332;stroke-linecap:round;stroke-linejoin:round;stroke-miterlimit:4;stroke-dasharray:none;stroke-opacity:1" id="ellipse852" cx="50.356" cy="252.374" rx="7.484" ry="9.087"/><path style="fill:none;stroke:#000;stroke-width:.26458332px;stroke-linecap:butt;stroke-linejoin:miter;stroke-opacity:1" id="path854" d="m 50.377139,261.49385 c 0,0 -2.345516,1.99848 -0.439591,5.13673 1.848382,3.0435 0.104794,4.26776 -0.439591,5.13673 -1.421359,2.26884 -1.255891,3.77461 -0.439591,5.13672 0.853755,1.42461 -0.439591,5.13673 -0.439591,5.13673"/></g><g id="g870" transform="matrix(0.89882417,0.14374974,-0.24083922,0.5364813,89.797544,126.69614)"><ellipse style="opacity:1;fill:#5f5;fill-opacity:1;stroke:#000;stroke-width:.26458332;stroke-linecap:round;stroke-linejoin:round;stroke-miterlimit:4;stroke-dasharray:none;stroke-opacity:1" id="ellipse860" cx="32.78" cy="260.311" rx="7.484" ry="9.087"/><path style="fill:none;stroke:#000;stroke-width:.26458332px;stroke-linecap:butt;stroke-linejoin:miter;stroke-opacity:1" id="path862" d="m 32.801247,269.43135 c 0,0 -2.345516,1.99848 -0.439591,5.13673 1.848382,3.0435 0.104794,4.26776 -0.439591,5.13673 -1.421359,2.26884 -1.255891,3.77461 -0.439591,5.13672 0.853755,1.42461 -0.439591,5.13673 -0.439591,5.13673"/></g></g></svg>