<svg xmlns="http://www.w3.org/2000/svg" xmlns:svg="http://www.w3.org/2000/svg" xmlns:xlink="http://www.w3.org/1999/xlink" id="svg2" width="430.543" height="325.295" x="0" y="0" enable-background="new 0 0 430.543 325.295" version="1.1" viewBox="0 0 430.543 325.295" xml:space="preserve"><path id="path3908" fill="#ECDFCC" d="M421.543,202.7L216.081,80.106L10.622,202.7	l205.461,122.595L421.543,202.7z"/><g><g><polygon fill="#FAF7F2" points="147.417 173.326 240.025 224.716 299.406 188.254 209.769 134.769"/><polygon fill="none" stroke="#E7D6AA" stroke-miterlimit="10" points="209.48 139.863 290.215 188.285 240.029 219.794 154.98 172.863"/></g><g><polyline fill="#804813" points="136.542 211.494 136.542 213.576 128.073 213.576 128.073 207.767"/><polyline fill="#804813" points="241.898 228.052 241.898 232.972 250.076 232.972 250.076 223.589"/><polyline fill="#804813" points="195.187 244.332 195.187 253.715 203.365 253.715 203.365 248.797 203.365 247.463"/><path fill="#AF671A" d="M216.826,216.356V180.21c0,0-2.803-23.91-18.229-36.364c-15.425-12.453-30.383-22.416-53.753-10.959 c0,0,11.218-5.978,25.24,3.487s19.631,13.449,26.175,24.906c6.545,11.457,8.414,18.432,8.414,18.432v43.648L216.826,216.356z"/><path fill="#BC7421" d="M134.397,212.195l5.588-33.907l0.064-15.84c0,0-8.905,4.101-16.796,8.297 c-2.357,1.255-4.041,2.834-4.438,4.814c-0.62,3.1,0.092,5.903,0.685,7.848c1.057,3.467,2.708,4.845,2.708,4.845l0.14,16.837"/><path fill="#C6812F" d="M201.119,251.975l-68.581-40.888c0,0,0.674-38.152,0.674-54.591c0-16.439,7.356-23.91,19.77-25.903 c12.414-1.992,27.129,10.461,37.243,20.922c10.114,10.461,15.175,27.896,15.175,27.896v11.957"/><path fill="#C8812A" d="M188.836,210.716l55.052-28.729c0,0,6.477,1,8.967,6.643l-51.64,27.729"/><path fill="#BC7421" d="M252.408,187.825c0,0,3.322,3.817,3.322,13.615l-54.876,29.674v20.649l-1.578-0.729v-22.401v-12.438"/><path fill="#A66018" d="M200.635,231.283v20.649l46.244-25.113c0,0,3.818-0.829,3.736-7.305c-0.084-6.476,0-15.257,0-15.257"/><path fill="#BC7421" d="M194.29,207.854c0,0,7.121-0.771,10.357,6.452l-3.041,1.423c0,0-4.222-6.647-12.289-5.04"/><path fill="#A66018" d="M189.317,242.072v-31.384c0.588-0.043,14.447-3.508,14.039,9.595c0,0,0,5.477-3.818,7.455l-0.262,21.285 l-0.942-0.48l-9.017-5.487V242.072z"/><polyline fill="#C8812A" points="123.662 172.454 140.049 164.518 145.84 171.971 132.299 176.97"/><path fill="#A66018" d="M124.046,188.055c0,0-2.324-2.565-3.196-5.68c-0.37-1.323-0.445-2.419-0.415-3.162 c0.041-1.004-0.214-1.687,0-2.615c0.187-0.81,1.027-2.692,2.242-3.61c1.214-0.92,2.802-0.873,3.86-0.996 c2.117-0.25,5.917,1.867,6.529,3.61c0.612,1.743,0.157,33.788,0.157,33.788l-9.201-5.354"/></g></g></svg>